<svg width="61" height="61" viewBox="0 0 61 61" fill="none" xmlns="http://www.w3.org/2000/svg">
<path fill-rule="evenodd" clip-rule="evenodd" d="M1.50556 53.885C0.223656 53.9627 0 55.6178 0 56.9021C0 58.2532 0.297724 59.9048 1.64572 59.996C1.73292 60.0019 1.82258 60.0045 1.91466 60.0044C10.5471 59.9979 19.1796 59.9944 27.8121 59.9938C27.8338 59.9938 27.8555 59.994 27.8772 59.9942L27.9398 59.9951H27.9398C28.1717 59.9984 28.4041 60.0018 28.6248 59.9056C28.8035 59.8438 28.9556 59.7225 29.0555 59.5619C29.1554 59.4013 29.197 59.2112 29.1734 59.0236C29.1668 58.824 29.0866 58.6338 28.9483 58.4898C28.81 58.3458 28.6232 58.258 28.4241 58.2434C28.209 58.2254 27.9931 58.2204 27.7775 58.2285C19.3412 58.2182 10.9049 58.2223 2.4686 58.2409C1.91353 58.2421 1.69084 58.1286 1.75649 57.5412C1.79458 57.052 1.79671 56.5607 1.76287 56.0712C1.7523 55.7797 1.82563 55.6192 2.15071 55.661C2.26816 55.6692 2.38601 55.6698 2.50355 55.6631C20.9261 55.6707 39.3486 55.6661 57.7712 55.6493C58.3752 55.6488 58.6068 55.7848 58.5336 56.4086C58.4953 56.8782 58.4933 57.3499 58.5275 57.8198C58.5388 58.116 58.4517 58.2643 58.1331 58.2304C57.9764 58.2213 57.8193 58.2205 57.6625 58.228C49.4224 58.2278 41.1823 58.2279 32.9422 58.2283C32.9136 58.2283 32.8849 58.2281 32.8563 58.2279L32.7788 58.227H32.7788H32.7787H32.7786H32.7786H32.7785C32.6169 58.225 32.4552 58.2231 32.2952 58.2383C32.0957 58.2415 31.9048 58.3204 31.7611 58.4588C31.6174 58.5973 31.5315 58.7851 31.5209 58.9844C31.465 59.4538 31.6739 59.7955 32.1332 59.9236C32.381 59.9799 32.6352 60.0028 32.889 59.9916C41.3842 59.9834 49.8794 59.9877 58.3745 60.0043C58.4665 60.0045 58.5561 60.0018 58.6432 59.996C59.992 59.9055 60.2892 58.253 60.2892 56.9012C60.2892 55.6173 60.0543 54.0054 58.7753 53.8938C58.6546 53.8833 58.5284 53.8805 58.3967 53.8847C57.0072 53.9288 57.0061 53.8954 57.0061 52.494L57.0063 52.366L57.0067 52.2264C57.0075 52.0218 57.0083 51.8171 57.005 51.6124C56.9889 50.6232 56.4707 50.0886 55.4917 50.0472C54.5333 50.0067 54.5333 50.0067 54.5333 49.0226C54.5333 48.4163 54.5341 47.8099 54.5349 47.2036V47.2025C54.5371 45.4582 54.5393 43.7139 54.523 41.9697C54.5189 41.5239 54.6494 41.3608 55.0858 41.4215C55.2615 41.4377 55.4384 41.4379 55.6141 41.422C56.4228 41.3846 56.9708 40.8529 56.9981 40.0457C57.0199 39.3999 57.0294 38.7516 56.9975 38.1067C56.9765 37.6811 57.1408 37.55 57.5378 37.5872C57.668 37.5994 57.7996 37.5956 57.9312 37.5919H57.9312H57.9312H57.9313H57.9313H57.9314C58.055 37.5883 58.1787 37.5848 58.3013 37.5945C58.3872 37.6013 58.4714 37.6049 58.5539 37.6051C59.9591 37.6093 60.2892 35.851 60.2892 34.4458C60.2892 33.2147 60.1105 31.6221 58.8849 31.5058C58.7539 31.4934 58.6153 31.4925 58.4692 31.503C58.1656 31.5247 57.8603 31.5194 57.5548 31.5141C57.2911 31.5095 57.0273 31.5049 56.7646 31.5177C56.3926 31.5358 56.3031 31.3921 56.3044 31.0429C56.312 29.0579 56.3119 27.073 56.3118 25.088C56.3118 24.152 56.3117 23.216 56.3125 22.28C56.3125 22.2549 56.3116 22.2292 56.3108 22.2035C56.3046 22.0181 56.2984 21.8298 56.6166 21.8561C58.3321 21.9978 59.437 21.2649 60.0666 19.8582C60.236 19.4798 60.2892 19.0623 60.2892 18.6478C60.2892 18.2816 60.2517 17.9112 60.1007 17.5776C59.6703 16.6267 58.8841 16.0118 57.9451 15.473C49.3334 10.5154 40.7258 5.55059 32.1225 0.578456C30.7976 -0.187266 29.4993 -0.187584 28.1702 0.581111C19.384 5.66818 10.5909 10.7431 1.79084 15.8059C1.04705 16.2338 0.550635 16.8164 0.218476 17.5351C0.051127 17.8972 0 18.2991 0 18.698C0 19.0794 0.0473061 19.4631 0.197797 19.8136C0.618769 20.794 1.31002 21.5108 2.45017 21.7964C2.81353 21.882 3.18902 21.9036 3.55978 21.8602C3.85348 21.8309 3.98701 21.8905 3.98599 22.2223C3.97773 25.1831 3.9776 28.1439 3.98561 31.1047C3.98642 31.4052 3.89705 31.5257 3.58394 31.5156C3.33313 31.5076 3.08168 31.5116 2.83033 31.5157C2.49279 31.5211 2.15542 31.5265 1.81995 31.5027C1.6802 31.4927 1.54745 31.4932 1.4216 31.5042C0.184292 31.6125 0 33.2205 0 34.4625C0 35.8572 0.334079 37.5369 1.72728 37.6002C1.86925 37.6067 2.01539 37.606 2.16473 37.6008C3.28408 37.5617 3.28496 37.5917 3.2852 38.6912C3.28523 38.8186 3.28447 38.9459 3.28372 39.0732C3.28193 39.377 3.28014 39.6809 3.2889 39.9843C3.31408 40.8566 3.85952 41.3947 4.73311 41.4243C5.75586 41.4589 5.75586 41.4589 5.75586 42.4981C5.75586 43.0981 5.75511 43.6982 5.75436 44.2982C5.75219 46.0298 5.75002 47.7614 5.76583 49.4929C5.76983 49.9316 5.65213 50.1086 5.20793 50.0506C5.01274 50.0305 4.81589 50.0329 4.62122 50.0575C3.81066 50.1391 3.30845 50.6751 3.28982 51.4964C3.27472 52.1623 3.27271 52.8291 3.29051 53.4947C3.29862 53.7982 3.2053 53.9215 2.89217 53.9012C2.7361 53.8911 2.57898 53.895 2.42194 53.8988C2.24523 53.9032 2.06861 53.9076 1.89365 53.892C1.75853 53.8799 1.62915 53.8775 1.50556 53.885ZM56.695 35.8211C47.8647 35.8238 39.0343 35.8251 30.2039 35.8251C21.3148 35.8283 12.4256 35.8269 3.53648 35.821C3.37096 35.8209 3.19028 35.8418 3.00892 35.8628C2.57127 35.9134 2.1296 35.9645 1.88716 35.7219C1.64288 35.4775 1.68857 35.0649 1.73504 34.6452C1.75842 34.4341 1.782 34.2211 1.76892 34.027C1.76458 33.9626 1.76644 33.8978 1.7683 33.833C1.77038 33.7601 1.77247 33.6872 1.76575 33.6152C1.74198 33.3604 1.8466 33.2544 2.1022 33.2752C2.20865 33.2839 2.316 33.2815 2.42336 33.2791C2.47325 33.278 2.52314 33.2769 2.57295 33.2769C10.9912 33.277 19.4094 33.277 27.8276 33.2768C28.7362 33.2767 29.1636 33.0053 29.1851 32.4169C29.2075 31.8072 28.7634 31.5107 27.824 31.5107C20.6813 31.5019 13.5385 31.5055 6.39586 31.5216C5.89818 31.5227 5.72867 31.4293 5.73361 30.8877C5.76227 27.7483 5.75459 24.6085 5.73897 21.4689C5.72191 21.2982 5.75871 21.1265 5.8442 20.9778C5.9297 20.8291 6.05961 20.7108 6.2157 20.6397C14.0469 16.1315 21.8721 11.6131 29.6914 7.0844C29.8234 6.9897 29.9815 6.93827 30.1439 6.9372C30.3064 6.93613 30.4652 6.98548 30.5984 7.07843C38.4355 11.6157 46.2777 16.144 54.125 20.6635C54.2639 20.727 54.3795 20.8321 54.456 20.9643C54.5325 21.0964 54.5661 21.2491 54.552 21.4011C54.5335 24.5801 54.5345 27.759 54.5549 30.9377C54.5579 31.4065 54.4213 31.5215 53.963 31.5205C46.8792 31.5138 39.7954 31.5105 32.7115 31.5107C31.7672 31.5107 31.3268 31.8023 31.3462 32.4125C31.365 33.0012 31.7953 33.2767 32.7002 33.2767C41.0792 33.2881 49.4581 33.2834 57.837 33.2626C58.4103 33.2612 58.6014 33.4026 58.5306 33.9699C58.5035 34.187 58.5289 34.4285 58.5539 34.6659C58.5974 35.0796 58.6397 35.4811 58.4008 35.7201C58.1526 35.9684 57.6952 35.916 57.2419 35.864C57.0538 35.8425 56.8665 35.821 56.695 35.8211ZM4.17084 19.7891C3.88008 19.9593 3.59054 20.1287 3.2633 20.1095C2.96156 20.1264 2.66243 20.0454 2.41048 19.8785C2.15853 19.7116 1.96727 19.4677 1.86521 19.1833C1.75861 18.9169 1.73896 18.6237 1.80906 18.3456C1.87916 18.0674 2.03544 17.8185 2.25552 17.6345C2.42248 17.4984 2.60204 17.3785 2.79178 17.2764C11.5207 12.2482 20.2434 7.20926 28.9599 2.15953C29.7819 1.6833 30.5076 1.68006 31.3257 2.1538C40.0476 7.19437 48.7701 12.2338 57.4934 17.272C57.6832 17.3741 57.8627 17.4943 58.0293 17.631C58.2819 17.852 58.4477 18.1556 58.4971 18.4877C58.5465 18.8197 58.4762 19.1584 58.2988 19.4434C58.1214 19.7284 57.8485 19.941 57.5288 20.0432C57.209 20.1455 56.8634 20.1308 56.5536 20.0017C56.1474 19.8067 55.7521 19.5899 55.3693 19.3523C47.2666 14.6896 39.1731 10.0112 31.0887 5.31699C30.4095 4.92261 29.8896 4.92101 29.2051 5.31861C20.8938 10.1297 12.5796 14.9355 4.26219 19.7359C4.23191 19.7534 4.20169 19.7711 4.17148 19.7888L4.17084 19.7891ZM44.9964 42.3463V45.7581C44.9964 46.1042 44.9955 46.4502 44.9947 46.7963C44.9924 47.7248 44.9902 48.6534 45.0035 49.5817C45.0086 49.9349 44.9113 50.0751 44.5437 50.0534C44.231 50.0321 43.9169 50.0517 43.6093 50.1119C42.9509 50.2488 42.5488 50.7841 42.528 51.5335C42.51 52.1801 42.5069 52.8282 42.5298 53.4744C42.5417 53.812 42.4255 53.907 42.0952 53.9033C40.6836 53.8876 39.2714 53.8807 37.86 53.9065C37.4455 53.9141 37.3676 53.7491 37.381 53.3919C37.3994 52.9025 37.3931 52.4119 37.3868 51.9217V51.9216V51.9214V51.9213V51.9211L37.3846 51.745C37.3703 50.5674 36.8647 50.0609 35.6981 50.0461C35.5874 50.0446 35.4922 50.046 35.4104 50.0471C35.1846 50.0502 35.0609 50.0519 34.9932 49.9911C34.9113 49.9176 34.9116 49.7525 34.9123 49.3876L34.9125 49.2559C34.912 48.5497 34.9128 47.8436 34.9136 47.1374C34.9156 45.4513 34.9175 43.7653 34.9018 42.0793C34.8973 41.5924 34.9828 41.3954 35.5349 41.4104C36.9477 41.4487 37.3824 40.9798 37.386 39.5525C37.3864 39.4105 37.3877 39.2685 37.3891 39.1264V39.1262C37.3926 38.7583 37.3962 38.3904 37.3822 38.0232C37.3695 37.6867 37.5049 37.5845 37.8291 37.5872C39.2605 37.5984 40.6919 37.5985 42.1232 37.5877C42.4274 37.5854 42.5372 37.6882 42.5281 37.9949C42.5102 38.6022 42.517 39.2105 42.5249 39.8183C42.5386 40.8725 43.0761 41.4108 44.1174 41.4254C44.9964 41.4378 44.9964 41.4378 44.9964 42.3463ZM25.3762 44.6835L25.3762 44.6922C25.376 45.0402 25.3758 45.3881 25.3758 45.736C25.3757 46.0872 25.3742 46.4384 25.3727 46.7896C25.3688 47.6931 25.3649 48.5966 25.3854 49.4996C25.3956 49.947 25.2491 50.1038 24.8164 50.0505C24.6211 50.0317 24.4242 50.0352 24.2297 50.0611C23.4617 50.1448 22.9693 50.6258 22.9231 51.4001C22.8834 52.0644 22.8892 52.7329 22.9085 53.3985C22.9192 53.7665 22.825 53.9128 22.422 53.9059C21.011 53.882 19.5992 53.8869 18.188 53.9037C17.8501 53.9077 17.7468 53.799 17.7594 53.4689C17.7787 52.9638 17.7729 52.4575 17.767 51.9516V51.9515L17.7643 51.7049C17.7532 50.6125 17.225 50.0722 16.1518 50.0463C15.2949 50.0256 15.2949 50.0256 15.2949 49.164C15.2949 48.5474 15.2956 47.9308 15.2964 47.3142C15.2987 45.5588 15.301 43.8034 15.2847 42.0482C15.2804 41.584 15.3646 41.4014 15.8831 41.412C17.3281 41.4414 17.7645 40.9746 17.7655 39.5198C17.7656 39.3703 17.7669 39.2208 17.7682 39.0713C17.7714 38.711 17.7745 38.3506 17.7608 37.9909C17.7489 37.6797 17.8701 37.5857 18.1695 37.5879C19.6006 37.5997 21.0316 37.5994 22.4625 37.5871C22.79 37.5843 22.916 37.6931 22.9062 38.026C22.8884 38.6331 22.8911 39.2415 22.9056 39.8488C22.9311 40.9168 23.4474 41.4109 24.5205 41.4263C24.6615 41.4283 24.7792 41.4254 24.8776 41.423H24.8777H24.8778H24.8779C25.0979 41.4176 25.2206 41.4146 25.2889 41.4741C25.3749 41.5489 25.3749 41.7226 25.3749 42.1149L25.375 42.2663C25.3773 43.072 25.3767 43.8777 25.3762 44.6835ZM7.52406 46.7813C7.52316 46.4297 7.52226 46.0782 7.52226 45.7266C7.52224 45.3703 7.5239 45.014 7.52557 44.6577V44.6577C7.52976 43.7595 7.53395 42.8614 7.5112 41.964C7.49968 41.5096 7.64963 41.4098 8.07754 41.416C9.72393 41.4391 11.3701 41.4392 13.016 41.4162C13.4368 41.4104 13.5399 41.547 13.5372 41.9502C13.5191 44.4785 13.5194 47.0066 13.5381 49.5346C13.5412 49.9603 13.3931 50.0576 12.9982 50.0534C11.3322 50.0338 9.6664 50.0341 8.00079 50.0541C7.60384 50.0589 7.50931 49.9195 7.5149 49.5482C7.52877 48.626 7.52642 47.7037 7.52406 46.7813ZM52.7656 44.6817C52.7662 45.0285 52.7669 45.3752 52.7669 45.722C52.7669 46.0736 52.7661 46.4252 52.7653 46.7768C52.7631 47.6988 52.761 48.6208 52.7737 49.5426C52.7788 49.9055 52.6993 50.0595 52.2942 50.0544C50.609 50.0338 48.9241 50.0337 47.2393 50.0542C46.8327 50.0591 46.7547 49.9018 46.7564 49.538C46.7681 46.9909 46.7681 44.4438 46.7566 41.8967C46.7551 41.5521 46.8375 41.4141 47.2121 41.418C48.9168 41.4368 50.6214 41.4366 52.3258 41.4175C52.7098 41.4132 52.7766 41.5664 52.7727 41.9013C52.7621 42.828 52.7639 43.7549 52.7656 44.6817ZM33.1431 44.7C33.1442 45.0556 33.1453 45.4112 33.1453 45.7668C33.1454 46.1157 33.1443 46.4647 33.1432 46.8137C33.1406 47.6998 33.1379 48.586 33.1532 49.4718C33.1602 49.8798 33.087 50.0654 32.6138 50.057C30.9675 50.0278 29.3204 50.0343 27.6739 50.0539C27.2712 50.0587 27.1316 49.9498 27.1345 49.5299C27.1507 47.001 27.1509 44.4721 27.135 41.9433C27.1324 41.528 27.2707 41.4127 27.6747 41.4175C29.3215 41.4372 30.9682 41.4372 32.6147 41.4174C33.0197 41.4125 33.1606 41.5294 33.1534 41.9442C33.1374 42.8613 33.1403 43.7788 33.1431 44.6963L33.1431 44.7ZM14.5353 53.8968H10.4793C10.0435 53.8967 9.6077 53.896 9.1719 53.8953H9.171C7.96117 53.8932 6.75134 53.8912 5.54168 53.9045C5.16781 53.9087 5.04405 53.8147 5.04131 53.4206L5.04101 53.3778C5.03549 52.5954 5.03273 52.204 5.22706 52.0082C5.42156 51.8122 5.81348 51.8122 6.59766 51.8122H6.59796C7.32413 51.8122 8.05031 51.8128 8.77648 51.8133C10.9894 51.8151 13.2024 51.8168 15.4152 51.8028C15.8711 51.7999 16.0169 51.9172 16.011 52.3901L16.0103 52.45C15.9928 53.8965 15.9928 53.8968 14.5353 53.8968ZM45.8159 51.8122H49.8138C50.2476 51.8123 50.6814 51.813 51.1152 51.8137C52.3276 51.8158 53.54 51.8179 54.7522 51.8049C55.137 51.8008 55.2463 51.9195 55.2498 52.3053L55.2501 52.3451C55.257 53.1172 55.2605 53.5051 55.0683 53.7C54.8742 53.8968 54.4805 53.8968 53.6894 53.8968H53.6891C52.9692 53.8968 52.2494 53.8962 51.5296 53.8956L51.5151 53.8956C49.3001 53.8939 47.0852 53.8922 44.8703 53.9066C44.4193 53.9095 44.2706 53.8043 44.2773 53.3287L44.2782 53.2687C44.2985 51.8125 44.2985 51.8122 45.8159 51.8122ZM34.1882 53.8968H30.1295C29.686 53.8968 29.2425 53.8958 28.799 53.8948C27.5954 53.8923 26.3919 53.8897 25.1886 53.9058C24.7759 53.9113 24.6626 53.7861 24.6604 53.3785L24.6602 53.3368C24.6561 52.5814 24.654 52.2003 24.8435 52.008C25.0365 51.8122 25.4281 51.8122 26.2184 51.8122H26.2186C26.9666 51.8122 27.7146 51.8132 28.4626 51.8141C30.6361 51.8168 32.8097 51.8195 34.983 51.7993C35.5193 51.7943 35.6389 51.9655 35.6306 52.4677L35.6296 52.5282C35.6072 53.8964 35.6072 53.8968 34.1882 53.8968ZM14.5104 39.6593H10.5104C10.0682 39.6592 9.62598 39.6583 9.18375 39.6573H9.18301C7.97841 39.6548 6.77382 39.6522 5.56947 39.6684C5.16204 39.6739 5.03998 39.566 5.04087 39.1485L5.04096 39.1017C5.044 37.5914 5.044 37.5914 6.59078 37.5914C7.31841 37.5914 8.04603 37.592 8.77366 37.5925C10.9872 37.5942 13.2007 37.5958 15.4141 37.5824C15.8686 37.5797 16.0165 37.6997 16.0109 38.1717L16.0102 38.2297C15.9935 39.659 15.9935 39.6593 14.5104 39.6593ZM53.7899 39.6593H49.7304C49.2964 39.6592 48.8624 39.6585 48.4284 39.6578H48.4275C47.2145 39.6559 46.0014 39.654 44.7886 39.6665C44.4174 39.6704 44.283 39.582 44.2794 39.1817L44.279 39.1389C44.2721 38.3737 44.2686 37.9868 44.4603 37.7913C44.6562 37.5914 45.0561 37.5914 45.8647 37.5914H45.865C46.6 37.5914 47.335 37.5921 48.07 37.5929C50.2571 37.595 52.4441 37.5972 54.631 37.5803C55.1183 37.5766 55.2607 37.7055 55.2522 38.1976L55.2511 38.2605C55.2273 39.6589 55.2273 39.6593 53.7899 39.6593ZM34.1368 39.6593H30.0826C29.6486 39.6592 29.2146 39.6584 28.7806 39.6576H28.7798C27.5884 39.6554 26.3971 39.6532 25.2059 39.6671C24.8146 39.6717 24.6625 39.5861 24.6594 39.1562L24.659 39.1079C24.6536 38.3572 24.6509 37.9781 24.839 37.7867C25.031 37.5914 25.4216 37.5914 26.2108 37.5914H26.2111C26.9339 37.5914 27.6567 37.5919 28.3795 37.5924C30.5945 37.594 32.8096 37.5956 35.0246 37.5827C35.47 37.5802 35.6344 37.6844 35.631 38.1639L35.6306 38.2234C35.6207 39.6591 35.6207 39.6593 34.1368 39.6593ZM14.5374 23.5838C14.5382 23.8953 14.539 24.2068 14.5391 24.5182C14.5391 24.8509 14.5381 25.1836 14.5371 25.5163L14.5371 25.5172C14.5348 26.2826 14.5325 27.0481 14.5434 27.8134C14.5539 28.5539 14.8511 28.8385 15.5934 28.8474C16.319 28.8561 17.0449 28.8499 17.7704 28.8379C18.9226 28.8189 19.7628 28.2741 20.2387 27.24C20.7184 26.1977 20.5444 25.2031 19.8049 24.3356C19.5993 24.0944 19.5511 23.931 19.6713 23.6256C20.3256 21.9632 19.2059 20.2908 17.4154 20.2339C16.8919 20.2173 16.3676 20.2234 15.8435 20.2295L15.6502 20.2317C14.8562 20.2404 14.55 20.5392 14.5415 21.3408C14.5337 22.0884 14.5356 22.8361 14.5374 23.5838ZM16.3669 27.0044C16.299 26.9312 16.301 26.7933 16.3047 26.5384V26.5384V26.5384V26.5384C16.3063 26.4237 16.3083 26.2854 16.3044 26.1186C16.3044 25.1608 16.3044 25.16 17.2623 25.1617C17.4777 25.1514 17.6935 25.1573 17.9079 25.1795C18.1444 25.2112 18.3598 25.3321 18.5099 25.5175C18.6601 25.7029 18.7336 25.9387 18.7154 26.1766C18.6635 26.6847 18.3808 27.0031 17.8564 27.0609C17.7133 27.0767 17.5683 27.0762 17.4234 27.0758H17.4234C17.3718 27.0757 17.3203 27.0755 17.2689 27.0761C17.1732 27.0772 17.0869 27.0788 17.009 27.0802H17.0089H17.0089C16.6236 27.0875 16.4468 27.0908 16.3669 27.0044ZM16.9892 23.3945L16.9887 23.3945C16.9426 23.3949 16.897 23.3802 16.8511 23.3763C16.802 23.3722 16.7451 23.3817 16.6872 23.3915C16.527 23.4184 16.3591 23.4467 16.3279 23.1885C16.3199 23.1229 16.3087 23.0517 16.297 22.9779C16.2414 22.6264 16.1765 22.2158 16.4166 22.0757C16.7821 21.8624 17.3389 21.8919 17.7739 22.1245C17.9092 22.19 18.0151 22.3038 18.0706 22.4434C18.1262 22.5831 18.1274 22.7386 18.074 22.8791C17.9156 23.3806 17.5064 23.4139 17.0743 23.3951C17.0493 23.394 17.0243 23.3942 16.9893 23.3945H16.9892ZM35.6038 24.8493C35.668 24.9353 35.8056 24.8898 35.8056 24.7825L35.8056 24.1372V24.1288V24.1206V24.1125C35.8055 23.2349 35.8054 22.4214 35.806 21.6079C35.7939 21.4121 35.7983 21.2155 35.8193 21.0204C35.9044 20.5317 36.2127 20.2345 36.7064 20.2461C37.1953 20.2575 37.5449 20.5506 37.5549 21.0522C37.5997 23.2888 37.6254 25.5257 37.6319 27.763C37.6465 27.9825 37.5838 28.2002 37.4545 28.3782C37.3253 28.5562 37.1377 28.6833 36.9245 28.7373C36.4343 28.8825 36.0802 28.6605 35.8148 28.2798C35.1233 27.288 34.4371 26.2925 33.7503 25.2961L33.7492 25.2945C33.5625 25.0237 33.3758 24.7528 33.1889 24.4819C33.0637 24.3004 32.8066 24.2714 32.8364 24.4899C32.841 24.5234 32.8454 24.5561 32.8452 24.5865C32.8406 25.1331 32.8409 25.6798 32.8412 26.2264C32.8415 26.7395 32.8418 27.2526 32.8381 27.7657C32.833 28.4577 32.5021 28.8456 31.9455 28.843C31.386 28.8404 31.0768 28.4644 31.0755 27.7571C31.0739 26.8794 31.0742 26.0018 31.0746 25.1241C31.0751 23.8626 31.0756 22.6012 31.0703 21.3398C31.0683 20.8392 31.1968 20.443 31.7231 20.2926C32.226 20.1489 32.5362 20.4241 32.7987 20.8064C33.6424 22.0353 34.4892 23.262 35.339 24.4867C35.4158 24.5977 35.4967 24.7059 35.6032 24.8485L35.6034 24.8488L35.6037 24.8492L35.6038 24.8493ZM26.6172 20.9162C26.5837 20.8278 26.5428 20.749 26.4951 20.6791C26.1298 20.1437 25.1962 20.1189 24.8226 20.6486C24.7759 20.7148 24.7358 20.7899 24.7033 20.8747C23.8291 23.1382 22.967 25.4063 22.117 27.679C22.0744 27.7839 22.0532 27.8963 22.0548 28.0095C22.0563 28.1227 22.0805 28.2344 22.126 28.3381C22.1715 28.4418 22.2372 28.5353 22.3195 28.6132C22.4017 28.691 22.4987 28.7516 22.6047 28.7913C23.0494 28.9612 23.6271 28.7956 23.7147 28.3166C23.9304 27.136 24.6985 27.0516 25.6365 27.1706C25.7144 27.1817 25.7934 27.1816 25.8713 27.1702C26.7281 27.0278 27.2996 27.2481 27.5115 28.209C27.6377 28.7813 28.1804 28.9786 28.6701 28.791C29.1145 28.6208 29.3388 28.1342 29.1465 27.6174C28.4474 25.7381 27.7358 23.8634 27.0243 21.9888L26.6172 20.9162ZM25.2522 25.4051C25.0649 25.4047 24.9353 25.2175 25.001 25.0421L25.415 23.9368C25.494 23.7257 25.7932 23.725 25.8738 23.9356L25.8738 23.9356C26.0475 24.39 26.2024 24.7952 26.3462 25.2044C26.4163 25.404 26.2624 25.4033 26.1386 25.4027L26.1273 25.4026L26.102 25.4027C25.8282 25.4064 25.5543 25.4058 25.2522 25.4051ZM42.7365 26.9599C42.427 26.6621 41.9528 26.8195 41.9624 27.2489C41.9631 27.2812 41.9639 27.3134 41.9647 27.3454V27.3455C41.9687 27.5029 41.9726 27.6577 41.9655 27.8118C41.9345 28.4838 41.6416 28.8371 41.0949 28.8417C40.5508 28.8463 40.2077 28.4861 40.2042 27.8288C40.1924 25.6137 40.1923 23.3985 40.2041 21.1833C40.2074 20.5368 40.5621 20.1592 41.0932 20.1621C41.624 20.165 41.9451 20.5401 41.962 21.1954C41.9687 21.4537 41.9673 21.7123 41.9656 22.0222C41.9645 22.219 42.1972 22.3226 42.3432 22.1906L42.4664 22.0792C42.8253 21.7547 43.1474 21.4635 43.4685 21.1713C43.5563 21.0914 43.6423 21.0094 43.7284 20.9275C43.8838 20.7794 44.0393 20.6313 44.2049 20.4956C44.6444 20.1356 45.1244 20.1569 45.4669 20.5297C45.7983 20.8905 45.788 21.4053 45.3875 21.7888C44.5949 22.5479 43.7926 23.2984 42.9653 24.0192C42.6477 24.2959 42.6482 24.4448 42.9578 24.728C43.6882 25.3963 44.3971 26.0882 45.1059 26.78L45.106 26.78C45.239 26.9098 45.3719 27.0395 45.505 27.1691C46.0163 27.667 46.0773 28.2149 45.682 28.6023C45.3059 28.9708 44.7815 28.9163 44.2853 28.4443C43.7726 27.9568 43.2628 27.4663 42.7374 26.9607L42.7365 26.9599ZM32.3323 10.7783C31.7231 10.3721 31.0071 10.1558 30.2749 10.1566C29.2949 10.1601 28.3561 10.5511 27.6634 11.2444C26.9708 11.9377 26.5806 12.8769 26.5781 13.8569C26.578 14.5891 26.795 15.3049 27.2018 15.9138C27.6086 16.5226 28.1868 16.9971 28.8633 17.2772C29.5398 17.5573 30.2843 17.6305 31.0024 17.4874C31.7205 17.3444 32.38 16.9915 32.8975 16.4735C33.415 15.9555 33.7673 15.2956 33.9096 14.5774C34.052 13.8591 33.9782 13.1148 33.6974 12.4385C33.4166 11.7623 32.9416 11.1845 32.3323 10.7783ZM28.9211 12.4808C29.2856 12.121 29.7781 11.9205 30.2903 11.9233C30.5451 11.924 30.7974 11.9749 31.0325 12.0734C31.2675 12.1718 31.4809 12.3157 31.6601 12.4968C31.8394 12.678 31.9812 12.8927 32.0772 13.1288C32.1732 13.3649 32.2216 13.6176 32.2197 13.8725C32.2177 14.1273 32.1654 14.3793 32.0657 14.6139C31.966 14.8484 31.821 15.061 31.6389 15.2393C31.4569 15.4177 31.2413 15.5583 31.0047 15.653C30.7682 15.7478 30.5152 15.7949 30.2603 15.7916C29.7481 15.7864 29.2589 15.5784 28.8999 15.213C28.5409 14.8476 28.3416 14.3547 28.3455 13.8425C28.3495 13.3303 28.5565 12.8406 28.9211 12.4808Z" fill="url(#paint0_linear_1134_2834)"/>
<defs>
<linearGradient id="paint0_linear_1134_2834" x1="30.1446" y1="60.0044" x2="30.1446" y2="0.904393" gradientUnits="userSpaceOnUse">
<stop offset="0.0109495" stop-color="#452178"/>
<stop offset="1" stop-color="#452178"/>
</linearGradient>
</defs>
</svg>
