<svg width="60" height="61" viewBox="0 0 60 61" fill="none" xmlns="http://www.w3.org/2000/svg">
<g clip-path="url(#clip0_1134_2757)">
<path d="M30.7391 26.9199L30.7243 26.9263L30.7097 26.9331C30.2629 27.1422 29.7804 27.1459 29.3329 26.9451L29.3254 26.9418L29.3179 26.9385C20.1765 23.0152 11.0296 19.1102 1.8773 15.2237L1.85461 15.214L1.83147 15.2055C1.66044 15.1427 1.4864 15.0283 1.32922 14.8545L0.587616 15.5253L1.32921 14.8545C1.19927 14.7108 1.08573 14.5317 1 14.3231V13.6848C1.18582 13.2068 1.4998 12.9561 2.04058 12.7284C11.1658 8.88638 20.2854 5.02506 29.3994 1.14447L29.4109 1.13958L29.4222 1.13441C29.8005 0.962056 30.2065 0.961119 30.5849 1.13126L30.5943 1.13548L30.6038 1.13951C39.7188 5.01412 48.8379 8.87518 57.961 12.7227L57.9614 12.7229C58.4937 12.947 58.8101 13.2033 59 13.6869V14.3297C58.8099 14.8121 58.4927 15.0688 57.9582 15.2958C48.8795 19.1514 39.8065 23.0261 30.7391 26.9199Z" stroke="url(#paint0_linear_1134_2757)" stroke-width="2"/>
<path d="M46.6465 30.2262V30.2268C46.6465 30.6079 46.6443 30.9946 46.642 31.3847C46.6368 32.2874 46.6315 33.2078 46.6533 34.118C46.6804 35.2465 46.3172 36.0817 45.6396 36.7761C44.4422 38.0031 42.9928 38.7115 41.3798 39.3169C36.5608 41.126 31.6091 41.5851 26.5469 41.1108C23.3683 40.8129 20.29 40.1207 17.3462 38.7755C16.2177 38.2599 15.2047 37.6568 14.3511 36.7698L14.3395 36.7577L14.3275 36.746C14.0219 36.4491 13.7651 36.0583 13.5893 35.5964L12.6547 35.9521L13.5893 35.5964C13.4135 35.1346 13.3271 34.6234 13.3414 34.105L13.3416 34.0969L13.3417 34.0888C13.3628 32.2276 13.3585 30.3618 13.3543 28.5039C13.3529 27.9195 13.3516 27.3359 13.3511 26.7534C14.3972 27.1994 15.4431 27.6446 16.4887 28.0896C20.1413 29.6443 23.79 31.1974 27.4315 32.7791C29.0865 33.5283 30.9236 33.5282 32.5785 32.7787C36.1543 31.2315 39.7355 29.7063 43.3197 28.1798C44.4285 27.7076 45.5375 27.2353 46.6467 26.7621C46.6473 27.9168 46.6473 29.0715 46.6465 30.2262ZM13.358 25.6733C13.3581 25.6733 13.3579 25.6747 13.3576 25.6772C13.3578 25.6745 13.358 25.6732 13.358 25.6733ZM46.6389 25.6889C46.639 25.6888 46.6392 25.6903 46.6395 25.6933C46.6391 25.6905 46.6389 25.689 46.6389 25.6889Z" stroke="url(#paint1_linear_1134_2757)" stroke-width="2"/>
<path d="M53.0037 23.9604C53.0033 23.8642 53.0086 23.8027 53.0146 23.7645C53.0288 23.7579 53.048 23.7497 53.0736 23.7401L53.0736 23.7401C53.7269 23.4966 54.3795 23.2146 55.0307 22.9299C55.0306 28.427 55.0278 33.9242 55.0223 39.4213C55.0038 39.7323 55.0508 40.0471 55.1629 40.3383C55.2763 40.6332 55.4566 40.9034 55.6986 41.1143C56.0341 41.4274 56.3149 41.8388 56.5102 42.3227C56.7072 42.8109 56.8088 43.3528 56.8034 43.9044C56.7979 44.456 56.6855 44.9943 56.4793 45.4758C56.2756 45.9516 55.9887 46.3525 55.6497 46.6546C55.4299 46.833 55.2661 47.0654 55.1618 47.3186C55.0574 47.5719 55.0119 47.8469 55.025 48.1186C55.035 51.3229 55.0362 54.5272 55.0286 57.7316L55.0286 57.7321C55.027 58.6655 54.6226 59.1073 54.2404 59.219C53.9435 59.3057 53.6759 59.2305 53.4545 59.0134C53.2198 58.7833 53.0201 58.3661 53.0184 57.7868C53.0087 54.6078 53.0097 51.4288 53.0215 48.2497C53.0398 47.9463 52.9929 47.639 52.881 47.3554C52.7687 47.0709 52.5906 46.8104 52.3517 46.6092C52.0173 46.2983 51.737 45.89 51.541 45.4094C51.3426 44.9226 51.239 44.3817 51.2423 43.8305C51.2456 43.2792 51.3556 42.7404 51.5596 42.2577C51.7612 41.7808 52.0462 41.3779 52.3838 41.0733C52.6097 40.8878 52.778 40.6465 52.8847 40.3835C52.9912 40.121 53.037 39.8363 53.0222 39.5551C53.0177 37.3653 53.017 35.1728 53.0164 32.9796C53.0155 29.9731 53.0147 26.9651 53.0037 23.9604ZM53.0037 23.9604L52.2537 23.9632M53.0037 23.9604L52.2537 23.9632M52.2537 23.9632C52.2647 26.9678 52.2655 29.9724 52.2664 32.9771C52.267 35.1773 52.2677 37.3776 52.2723 39.5778L55.0307 22.1111C54.9854 22.131 54.9402 22.1507 54.8951 22.1705C54.1904 22.4789 53.5063 22.7784 52.8116 23.0374C52.3829 23.1972 52.2517 23.4236 52.2537 23.9632Z" stroke="url(#paint2_linear_1134_2757)" stroke-width="1.5"/>
</g>
<defs>
<linearGradient id="paint0_linear_1134_2757" x1="30" y1="28.0929" x2="30" y2="0.425721" gradientUnits="userSpaceOnUse">
<stop offset="0.0109495" stop-color="#452178"/>
<stop offset="1" stop-color="#452178"/>
</linearGradient>
<linearGradient id="paint1_linear_1134_2757" x1="29.9973" y1="42.2852" x2="29.9973" y2="25.6028" gradientUnits="userSpaceOnUse">
<stop offset="0.0109495" stop-color="#452178"/>
<stop offset="1" stop-color="#452178"/>
</linearGradient>
<linearGradient id="paint2_linear_1134_2757" x1="54.0229" y1="60.0044" x2="54.0229" y2="22.3593" gradientUnits="userSpaceOnUse">
<stop offset="0.0109495" stop-color="#452178"/>
<stop offset="1" stop-color="#452178"/>
</linearGradient>
<clipPath id="clip0_1134_2757">
<rect width="60" height="60" fill="white" transform="translate(0 0.00439453)"/>
</clipPath>
</defs>
</svg>
