<svg width="60" height="60" viewBox="0 0 60 60" fill="none" xmlns="http://www.w3.org/2000/svg">
<path d="M58.7496 0H1.25015C0.500145 0 0 0.500145 0 1.25015V41.2499C0 41.9999 0.500145 42.5001 1.25015 42.5001H28.1249C27.875 44.3751 28.4999 46.3752 29.8748 47.8752C31.4999 49.5004 31.8749 50.1253 31.9996 50.2504V52.1254H31.7498C30.9998 52.1254 30.4996 52.6255 30.4996 53.3756L30.5 58.7499C30.5 59.4999 31.0002 60 31.7502 60H48.0006C48.7506 60 49.2507 59.4999 49.2507 58.7499V53.3747C49.2507 52.6247 48.7506 52.1245 48.0006 52.1245H47.7507V50.7497C47.7507 49.8745 48.1257 48.4997 48.5007 47.6245C48.8757 46.7494 49.2507 45.4997 49.2507 44.7497L49.2503 42.5001H58.7501C59.5001 42.5001 60.0002 41.9999 60.0002 41.2499V1.25015C60.0002 0.500145 59.5001 0 58.7501 0L58.7496 0ZM46.6253 57.5006H32.8756V54.6257H46.6253V57.5006ZM46.6253 44.6252C46.6253 45.0002 46.5002 45.8753 46.1252 46.5002C45.5003 47.6252 45.1253 49.5002 45.1253 50.7503V52.1252H34.3756V50.125C34.3756 49.375 33.8755 48.3752 31.6255 46.1252C30.3753 44.875 30.2506 43.1252 31.0006 41.6252C31.1258 41.5 31.1258 41.3753 31.2505 41.2501L31.6255 40.8751C31.6255 40.8751 31.6255 40.75 31.7506 40.75C32.0005 40.5001 32.1256 40.2499 32.1256 39.8749L32.1252 36.25V26.125V25.9998C32.3751 24.9999 33.7503 24.7497 33.8751 26.2497V35.9997C33.8751 36.7497 34.3752 37.2498 35.1252 37.2498C35.8752 37.2498 36.3754 36.7497 36.3754 35.9997C36.3754 35.4996 36.7504 35.2497 37.2505 35.1246C37.6255 35.1246 37.8754 35.3744 38.1256 35.6247C38.1256 35.7498 38.2508 35.8746 38.2508 35.9997C38.2508 36.1248 38.2508 36.3747 38.3759 36.4998C38.6258 37 39.0008 37.2498 39.5009 37.2498C40.2509 37.2498 40.7511 36.7497 40.7511 35.9997C40.8762 35.1246 41.3759 35.1246 42.0012 35.1246C42.3762 35.2497 42.5014 35.6247 42.5014 35.9997C42.5014 36.4998 42.8764 36.9996 43.2514 37.1247C43.3765 37.2498 43.6264 37.2498 43.7515 37.2498C44.5015 37.2498 45.0017 36.7497 45.0017 35.9997C45.1268 35.3748 45.5018 35.1246 46.0015 35.1246C46.1267 35.1246 46.2514 35.2497 46.3765 35.2497C46.6264 35.3748 46.7515 35.7498 46.7515 36.1248L46.7503 44.6252H46.6253ZM49 35.0003C48.4999 33.6254 47.6252 33.0001 46.375 32.7503C45.3752 32.6251 44.3749 32.8754 43.6249 33.5003C43.4997 33.3751 43.375 33.2504 43.1247 33.2504C41.9997 32.6255 40.3746 32.7503 39.3747 33.5003C38.6247 32.8754 37.3746 32.6251 36.3747 32.8754L36.3751 31.2503H48.7502C49.5002 31.2503 50.0003 30.7501 50.0003 30.0001C50.0003 29.2501 49.5002 28.75 48.7502 28.75H36.2498V26.2501C36.1246 24.1252 34.9996 23.1249 33.3749 22.7499C32.8748 22.6248 32.375 22.7499 32 22.8751C30.5 23.2501 29.6249 24.2499 29.5002 26.125L29.4998 28.75H15.7501C15.0001 28.75 14.4999 29.2501 14.4999 30.0001C14.4999 30.7501 15.0001 31.2503 15.7501 31.2503H29.4998V35.0003H12V7.49981H52.5002V35.0003H49ZM57.5003 40H49.1252V37.5001H53.7503C54.5003 37.5001 55.0005 37 55.0005 36.25L55.0001 6.24988C55.0001 5.49988 54.4999 4.99973 53.7499 4.99973L10.7501 5.00015C10.0001 5.00015 9.49997 5.5003 9.49997 6.2503V36.2504C9.49997 37.0004 10.0001 37.5006 10.7501 37.5006H29.5002V39.2504C29.375 39.5003 29.1252 39.6254 29 39.8753H2.50031V2.49943H57.5001L57.5003 40Z" fill="#452178"/>
<path d="M5.62466 10.6252C6.37466 10.6252 6.87481 10.1251 6.87481 9.37506V6.2499C6.87481 5.4999 6.37466 4.99976 5.62466 4.99976C4.87466 4.99976 4.37451 5.4999 4.37451 6.2499V9.37506C4.37451 10.1251 4.99979 10.6252 5.62466 10.6252Z" fill="#452178"/>
<path d="M5.62466 24.1254C6.37466 24.1254 6.87481 23.6253 6.87481 22.8753V19.7501C6.87481 19.0001 6.37466 18.5 5.62466 18.5C4.87466 18.5 4.37451 19.0001 4.37451 19.7501V22.8753C4.37451 23.5002 4.99979 24.1254 5.62466 24.1254Z" fill="#452178"/>
<path d="M5.62466 37.5002C6.37466 37.5002 6.87481 37.0001 6.87481 36.2501V33.1249C6.87481 32.3749 6.37466 31.8748 5.62466 31.8748C4.87466 31.8748 4.37451 32.3749 4.37451 33.1249V36.2501C4.37451 36.8753 4.99979 37.5002 5.62466 37.5002Z" fill="#452178"/>
<path d="M15.8751 13.7498H24.375C25.125 13.7498 25.6252 13.2497 25.6252 12.4997C25.6252 11.7497 25.125 11.2495 24.375 11.2495H15.8751C15.1251 11.2495 14.625 11.7497 14.625 12.4997C14.625 13.1249 15.1251 13.7498 15.8751 13.7498V13.7498Z" fill="#452178"/>
<path d="M48.6245 19.2505H15.8751C15.1251 19.2505 14.625 19.7506 14.625 20.5006C14.625 21.2506 15.1251 21.7508 15.8751 21.7508H48.7499C49.4999 21.7508 50.0001 21.2506 50.0001 20.5006C49.8749 19.7502 49.3748 19.2505 48.6248 19.2505H48.6245Z" fill="#452178"/>
</svg>
