<svg width="60" height="60" viewBox="0 0 60 60" fill="none" xmlns="http://www.w3.org/2000/svg">
<g clip-path="url(#clip0_1134_2783)">
<path d="M60 31.5234V46.5234C59.4857 47.7039 58.5531 48.0447 57.3182 48.0241C54.3327 47.9742 51.3457 48.0071 48.3593 48.0086C47.9064 48.0089 47.399 48.0445 47.0703 47.7336C46.5473 47.2388 46.0771 47.3973 45.5523 47.6541C45.2875 47.7782 45.0153 47.8856 44.7371 47.9759C44.4936 48.0594 44.4406 48.1652 44.4967 48.4453C44.8257 50.0862 44.2298 51.2813 42.7406 51.9876C42.6419 52.016 42.5573 52.08 42.5031 52.1673C42.449 52.2545 42.4292 52.3588 42.4475 52.4598C42.5175 54.5015 41.1717 55.8404 39.158 55.7273C39.067 55.7058 38.9713 55.7201 38.8906 55.7674C38.81 55.8146 38.7508 55.8912 38.7252 55.9811C38.1164 57.3269 37.0576 57.9382 35.5917 57.8431C35.4163 57.8317 35.2994 57.8286 35.2272 58.0208C34.8227 59.0969 33.9937 59.6863 32.9297 60H31.875C31.0897 59.7716 30.3912 59.3124 29.8702 58.6819C29.6642 58.4344 29.5074 58.4745 29.3204 58.6973C28.789 59.3177 28.0886 59.7703 27.3047 60H26.25C24.9451 59.5852 24.0359 58.7984 23.8173 57.3801C23.7788 57.1305 23.5989 57.1366 23.4357 57.1063C22.9309 57.0297 22.4559 56.8193 22.06 56.4969C21.664 56.1746 21.3617 55.7521 21.1843 55.2733C21.1746 55.2277 21.1559 55.1845 21.1292 55.1462C21.1026 55.108 21.0686 55.0754 21.0293 55.0504C20.9899 55.0254 20.9459 55.0085 20.9 55.0007C20.854 54.993 20.8069 54.9944 20.7615 55.0051C18.3634 55.1826 16.8462 53.1494 17.676 50.8814C17.7514 50.6753 17.7817 50.5692 17.5585 50.4168C16.1547 49.4581 15.7848 48.505 16.1728 46.8604C16.2335 46.603 16.171 46.5029 15.941 46.4542C15.3882 46.3372 14.835 46.2216 14.2826 46.1026C14.0951 46.0622 14.0181 46.1273 13.9526 46.3181C13.4991 47.6398 12.9768 48.0068 11.5863 48.0074C8.61853 48.0088 5.65016 47.9741 2.6832 48.024C1.44813 48.0448 0.513566 47.7064 0 46.5234V30.4688C0.489802 29.3851 1.31619 28.9277 2.51257 28.9832C3.77883 29.042 5.05015 29.0101 6.31882 28.99C6.85677 28.9814 7.55731 29.2365 7.89013 28.8748C8.21485 28.5219 7.94695 27.8295 7.99418 27.2892C8.02369 26.9518 7.89483 26.7791 7.58985 26.6161C7.03952 26.3319 6.59348 25.8806 6.31588 25.3269C6.03828 24.7733 5.94342 24.1458 6.04493 23.5349C6.32554 21.9904 7.52196 20.9986 9.15437 20.9942C12.5904 20.9851 16.0264 20.9874 19.4624 21.0011C19.902 21.0034 20.0338 20.8847 20.0197 20.4445C19.9879 19.4499 19.9995 18.4533 20.016 17.4579C20.0209 17.1673 19.9635 17.0056 19.652 16.9167C19.4715 16.863 19.3124 16.7542 19.1969 16.6056C19.0814 16.4569 19.0154 16.2758 19.0081 16.0876C18.967 15.7086 19.1069 15.2966 19.4464 15.2042C20.0951 15.0274 20.1479 14.5498 20.2565 14.042C20.3325 13.6796 20.4442 13.3256 20.59 12.9853C22.0634 9.59602 24.7371 7.77176 28.3002 7.15606C28.8124 7.06755 29.0315 6.94288 29.0105 6.37718C28.9648 5.14894 29.0445 3.9154 28.9829 2.68855C28.9209 1.45311 29.2884 0.51822 30.4688 0H34.4531C35.6103 0.44303 36.0992 1.28666 35.9974 2.51318C35.9588 2.97862 35.9968 3.45001 35.9894 3.91853C35.9699 5.16308 35.1731 5.97114 33.938 5.98835C33.1181 5.99977 32.2978 5.98705 31.4778 5.99482C31.3172 5.99634 31.1241 5.92482 31.0237 6.14991C30.9723 6.24533 30.9451 6.35189 30.9444 6.46026C30.9438 6.56862 30.9697 6.6755 31.0199 6.77154C31.0701 6.86758 31.1431 6.94985 31.2324 7.01116C31.3218 7.07246 31.4248 7.11094 31.5325 7.12323C31.8212 7.16853 32.1144 7.19874 32.3962 7.272C36.2965 8.28604 38.9849 10.5377 39.8649 14.6208C39.9146 14.8513 39.9852 14.9826 40.2465 15.0458C40.461 15.0883 40.6536 15.2052 40.7902 15.376C40.9268 15.5468 40.9986 15.7603 40.9929 15.9789C41.0108 16.1872 40.9552 16.3951 40.8358 16.5666C40.7164 16.7381 40.5407 16.8624 40.3392 16.9178C40.016 17.0128 39.9814 17.1861 39.9852 17.4668C39.9985 18.4234 40.0264 19.3822 39.9765 20.3363C39.9471 20.8976 40.1471 21.0055 40.6643 21.0023C44.0812 20.981 47.4983 20.9788 50.9154 20.9956C52.3875 21.001 53.5741 21.919 53.9019 23.253C54.2429 24.641 53.6642 25.9501 52.362 26.6512C52.0976 26.7935 51.9974 26.9396 52.0042 27.2321C52.0218 27.9932 52.0292 28.7557 52.002 29.5162C51.9885 29.8976 52.1043 30.0134 52.4908 30.0086C54.1307 29.9882 55.7729 30.0474 57.4107 29.9845C58.6495 29.9369 59.5285 30.3505 60 31.5234ZM24.96 33.8344C24.8561 33.7809 24.8254 33.7523 24.793 33.7502C21.3259 33.526 17.8584 33.3075 14.3918 33.0756C14.0627 33.0536 13.9933 33.1827 13.9937 33.4721C13.9991 36.8696 13.9987 40.267 13.9925 43.6645C13.9919 43.9553 14.0789 44.0628 14.3822 44.0977C15.3916 44.2084 16.382 44.4516 17.328 44.8209C17.4136 44.8655 17.5108 44.883 17.6066 44.8711C17.7024 44.8593 17.7923 44.8186 17.8645 44.7545C19.5004 43.4434 22.3126 44.2499 22.6599 46.6248C22.6897 46.8285 22.7468 46.9584 23.0064 47.0018C24.3947 47.2335 25.2185 48.0673 25.4961 49.4417C25.5358 49.6386 25.5525 49.7783 25.823 49.8243C27.2328 50.064 28.071 50.9119 28.3314 52.3158C28.3705 52.527 28.4534 52.5835 28.657 52.6319C30.6621 53.1084 31.5588 54.6145 31.0059 56.5828C30.9437 56.8043 30.9492 56.9447 31.1154 57.0967C31.3458 57.3073 31.5487 57.5494 31.7885 57.7477C31.9631 57.9093 32.1929 57.9979 32.4307 57.9955C32.6686 57.993 32.8965 57.8997 33.0678 57.7347C33.2552 57.5737 33.3745 57.3476 33.4016 57.102C33.4287 56.8564 33.3616 56.6097 33.2139 56.4117C33.0541 56.193 32.838 56.0163 32.657 55.812C32.2488 55.351 32.2428 54.7929 32.6343 54.3944C32.7278 54.3011 32.8389 54.2272 32.961 54.177C33.0832 54.1267 33.2141 54.1011 33.3462 54.1016C33.4783 54.1022 33.6089 54.1288 33.7307 54.1799C33.8525 54.2311 33.9629 54.3059 34.0557 54.3999C34.4016 54.7153 34.7203 55.0603 35.0555 55.3876C35.6317 55.9499 36.1941 56.0121 36.6474 55.5688C37.0888 55.1373 37.0264 54.5434 36.4705 53.9847C35.4376 52.9466 34.3988 51.9144 33.3657 50.8766C32.8115 50.3199 32.7401 49.7246 33.165 49.2852C33.6004 48.8349 34.1929 48.8886 34.7498 49.4383C35.3334 50.0145 35.9104 50.5972 36.4908 51.1765C37.2508 51.9352 38.0021 52.703 38.7754 53.4478C38.9348 53.6261 39.1563 53.7365 39.3946 53.7563C39.6328 53.7762 39.8696 53.704 40.0562 53.5546C40.4822 53.2554 40.5692 52.8205 40.3866 52.3604C40.2793 52.1528 40.1326 51.9682 39.9547 51.8168C38.6181 50.4749 37.2704 49.1441 35.9381 47.798C35.477 47.332 35.4577 46.7435 35.8459 46.3339C36.2518 45.9057 36.8567 45.9196 37.349 46.3905C37.8286 46.8493 38.2909 47.3263 38.761 47.795C39.4663 48.498 40.1682 49.2043 40.8785 49.9022C41.0257 50.0629 41.2225 50.1696 41.4374 50.2052C41.6524 50.2409 41.8731 50.2035 42.0643 50.099C42.2338 50.0182 42.3751 49.8883 42.4699 49.7262C42.5646 49.5641 42.6084 49.3772 42.5955 49.1898C42.5922 48.8066 42.3477 48.5485 42.1042 48.2893C38.8018 44.7747 35.503 41.2568 32.2076 37.7357C31.9204 37.4277 31.7638 37.3844 31.4328 37.6832C30.0706 38.9127 28.6784 40.1089 27.298 41.3181C26.445 42.0652 25.463 42.4359 24.3301 42.2455C22.8728 42.0006 21.8681 41.166 21.4505 39.744C21.0347 38.3283 21.4021 37.0789 22.4872 36.0684C23.2867 35.3238 24.108 34.6025 24.96 33.8344ZM46.0036 40.0416C46.0036 38.538 45.9784 37.0338 46.0167 35.5312C46.0309 34.971 45.8842 34.7248 45.3053 34.5876C41.474 33.6791 37.6293 32.8121 33.8379 31.7557C31.8297 31.1961 30.2874 31.4856 28.8122 33.0078C27.2532 34.6165 25.4999 36.037 23.8294 37.5374C23.5934 37.7319 23.421 37.9925 23.3344 38.2858C23.2479 38.5791 23.2511 38.8916 23.3437 39.1831C23.516 39.8031 23.9678 40.1647 24.5971 40.273C25.1863 40.3744 25.6485 40.1049 26.0777 39.7279C28.1314 37.924 30.1898 36.1255 32.2529 34.3323C32.7725 33.8813 33.3084 33.8916 33.7138 34.3137C34.1109 34.7272 34.096 35.2902 33.6254 35.7664C33.417 35.9773 33.3856 36.0934 33.6005 36.3214C36.6938 39.6041 39.7803 42.8932 42.8599 46.1888C43.0727 46.4165 43.2495 46.4326 43.5216 46.3154C44.1836 46.0302 44.8518 45.755 45.5329 45.5208C45.917 45.3887 46.0179 45.1752 46.0126 44.7865C45.9909 43.2051 46.0035 41.6232 46.0036 40.0416ZM1.99639 38.4756C1.99639 40.7979 2.00642 43.1202 1.98716 45.4423C1.98369 45.8611 2.06889 46.017 2.52639 46.0138C5.49247 45.9935 8.45864 45.9937 11.4249 46.0142C11.9057 46.0177 12.0018 45.8495 12.0005 45.4094C11.9868 40.804 11.987 36.1985 12.0009 31.5931C12.0023 31.1488 11.9017 30.9893 11.4238 30.9928C8.47729 31.0146 5.53065 31.0142 2.5839 30.9917C2.07318 30.9874 1.98138 31.1612 1.98603 31.6261C2.00884 33.9091 1.99638 36.1924 1.99639 38.4756ZM58.0036 38.9942C58.0036 36.8269 57.9963 34.6595 58.0107 32.4923C58.0131 32.129 57.9389 31.985 57.5347 31.9873C54.5279 32.0042 51.5211 32.0041 48.5142 31.987C48.0902 31.9845 47.9993 32.1279 48.0005 32.5216C48.0125 36.8367 48.0116 41.1517 47.9977 45.4668C47.9958 45.9281 48.1606 46.0133 48.5745 46.0113C51.5227 45.9967 54.4712 45.9906 57.4193 46.0158C57.9344 46.0202 58.0189 45.8402 58.0139 45.3788C57.9907 43.2508 58.0036 41.1224 58.0036 38.9942ZM30.0014 16.9964C27.5015 16.9964 25.0015 17.0034 22.5016 16.9889C22.1287 16.9867 21.9913 17.0786 22.0014 17.4731C22.0275 18.4881 22.0273 19.5035 22.001 20.5195C21.9901 20.9224 22.142 21.0129 22.5072 20.9979C23.1111 20.9486 23.7181 20.9505 24.3217 21.0036C26.0137 21.2236 27.4698 20.8233 28.6401 19.54C28.6681 19.5127 28.6987 19.4881 28.7314 19.4668C29.5784 18.8434 30.4123 18.8339 31.2655 19.4646C31.8304 19.8823 32.379 20.3224 32.9278 20.7614C33.1041 20.915 33.3307 20.9985 33.5646 20.9958C34.8926 20.9856 36.221 20.9772 37.5487 20.9997C37.9299 21.0062 38.0023 20.8613 37.9963 20.5224C37.9784 19.5267 37.9665 18.5296 38.0006 17.5347C38.016 17.0879 37.8751 16.9828 37.4426 16.9864C34.9623 17.007 32.4818 16.9964 30.0014 16.9964ZM29.9781 26.9922C27.8324 26.9922 25.6868 26.9916 23.5411 26.9905C23.2342 26.99 22.9721 26.9632 22.9815 27.4246C23.0072 28.6919 23.0017 29.9603 22.9832 31.2279C22.9781 31.5815 23.1307 31.6434 23.4348 31.6538C24.1557 31.6785 24.8946 31.6472 25.5913 31.7991C26.7349 32.0484 27.5276 31.6289 28.3176 30.842C29.6828 29.4822 31.3601 29.1161 33.2291 29.6003C34.3223 29.8836 35.4276 30.1209 36.5184 30.4129C36.9289 30.5229 37.028 30.4131 37.0168 30.0137C36.9938 29.195 36.9781 28.3736 37.0218 27.5567C37.0483 27.0604 36.8472 26.9808 36.415 26.9843C34.2695 27.0016 32.1237 26.9922 29.9781 26.9922ZM44.4703 26.9923C42.8132 26.9923 41.1561 27.0015 39.4992 26.9853C39.1242 26.9817 38.9895 27.0841 39 27.4782C39.0267 28.4912 39.0301 29.5061 38.9981 30.5188C38.9857 30.9092 39.1192 31.0577 39.483 31.1433C41.4721 31.6118 43.4615 32.081 45.4384 32.5976C45.9531 32.7321 46.0082 32.5846 46.014 32.1322C46.0313 30.775 46.8285 30.0097 48.1792 30.0006C48.6665 29.9973 49.1543 29.9877 49.6411 30.0042C49.9214 30.0136 50.0183 29.9095 50.0133 29.6327C50.0006 28.9311 49.9817 28.2277 50.0195 27.5279C50.0446 27.0641 49.8551 26.9792 49.4414 26.9841C47.7845 27.0037 46.1273 26.9922 44.4703 26.9923V26.9923ZM20.9912 29.2457C20.9912 28.7193 20.959 28.1904 21.0003 27.6673C21.0412 27.149 20.8971 26.9724 20.3385 26.978C17.3756 27.0081 14.4123 26.9921 11.4491 26.9921C9.90563 26.9921 9.91607 26.9917 9.98243 28.5671C9.9966 28.9032 10.1132 29.0061 10.432 29.0007C11.0164 28.9796 11.6014 28.988 12.1849 29.0258C12.618 29.0479 13.03 29.2196 13.3506 29.5117C13.6712 29.8038 13.8804 30.1981 13.9425 30.6274C14.0009 30.9689 14.122 31.0689 14.457 31.0882C16.4999 31.2055 18.5419 31.338 20.5831 31.4856C20.8865 31.5071 21.0053 31.4356 20.996 31.117C20.9779 30.4937 20.9907 29.8695 20.9912 29.2457ZM24.1744 23.0292C23.9322 23.0051 23.8589 22.9914 23.7857 22.9914C18.9267 22.9903 14.0678 22.9907 9.2088 22.9926C8.48081 22.9932 8.00828 23.3962 7.9987 23.9865C7.98871 24.6018 8.45602 24.9879 9.24232 24.9885C13.2427 24.9918 17.243 24.9918 21.2434 24.9886C21.4344 24.9885 21.6302 25.0195 21.8035 24.8827C22.5508 24.2931 23.3029 23.7095 24.1744 23.0292ZM35.9994 22.9901L35.9444 23.1194C36.6936 23.7051 37.4446 24.2887 38.1906 24.8785C38.3198 24.9671 38.4765 25.0065 38.6322 24.9893C42.73 24.9892 46.8277 24.9875 50.9254 24.9842C51.5624 24.9829 52.0054 24.5477 52.0005 23.9915C51.9959 23.4527 51.5804 23.047 50.9731 22.9953C50.8374 22.9837 50.7 22.9902 50.5635 22.9902C45.8804 22.99 41.1972 22.99 36.5141 22.9901C36.3425 22.9901 36.171 22.9901 35.9994 22.9901H35.9994ZM34.9207 24.9532C34.8886 24.8902 34.8491 24.8313 34.8029 24.7778C33.2837 23.5844 31.7589 22.3981 30.246 21.1968C29.9906 20.994 29.8362 21.1096 29.6409 21.265C28.8622 21.8848 28.0764 22.4957 27.2939 23.1108C26.5491 23.6963 25.8052 24.2829 24.9541 24.9532H34.9207ZM30.0024 14.9995C30.5478 14.9995 31.0933 14.9922 31.6384 15.0029C31.8835 15.0077 31.9884 14.9381 31.9638 14.6698C31.8116 13.0159 31.5838 11.3797 30.8055 9.88079C30.6226 9.52854 30.459 9.04305 29.9969 9.04666C29.5391 9.05024 29.3735 9.53278 29.1906 9.88549C28.4133 11.3849 28.1859 13.0211 28.035 14.6752C28.0099 14.9501 28.1278 15.0069 28.3665 15.0026C28.9116 14.9929 29.4571 14.9996 30.0024 14.9995V14.9995ZM27.1451 9.52485C24.8717 10.0319 22.5352 12.4757 22.1661 14.6482C22.1262 14.8831 22.1447 15.0074 22.4345 15.0042C23.525 14.9921 24.6157 14.9963 25.7063 15.002C25.9162 15.0031 26.0214 14.9484 26.0328 14.7131C26.1185 12.9346 26.4942 11.1821 27.1451 9.52485ZM32.9163 9.47652C32.9122 9.56027 32.9172 9.64423 32.9312 9.7269C33.5345 11.3117 33.8825 12.9822 33.9621 14.676C33.9776 14.9911 34.1354 15.004 34.3731 15.0026C35.4052 14.9961 36.4378 14.9817 37.4693 15.0083C37.9133 15.0198 37.8853 14.8258 37.7924 14.5162C37.0448 12.024 35.4302 10.3727 32.9163 9.47652ZM20.423 53.0323C20.6519 53.0355 20.8741 52.9552 21.0481 52.8064C21.8112 52.0563 22.5845 51.3148 23.3131 50.532C23.6849 50.1325 23.6171 49.5804 23.2475 49.2122C23.0774 49.0326 22.8442 48.926 22.597 48.915C22.3499 48.9041 22.1081 48.9896 21.9228 49.1535C21.144 49.8868 20.3959 50.6536 19.6529 51.4238C19.3684 51.7187 19.3597 52.1008 19.5169 52.4621C19.679 52.8345 19.9985 53.0076 20.423 53.0323ZM25.376 51.7392C25.1829 51.7342 24.9938 51.794 24.8388 51.9091C24.2651 52.4644 23.6765 53.0081 23.1458 53.6028C22.9962 53.7884 22.9246 54.0249 22.946 54.2623C22.9675 54.4997 23.0803 54.7195 23.2607 54.8754C23.6604 55.233 24.1374 55.2928 24.5378 54.9458C25.1231 54.4309 25.6757 53.8798 26.1924 53.296C26.4562 53.0021 26.4497 52.609 26.2512 52.2521C26.1656 52.0952 26.0389 51.9647 25.8847 51.8743C25.7305 51.784 25.5547 51.7372 25.376 51.7392ZM29.1862 55.5511C29.1824 55.3648 29.1248 55.1836 29.0203 55.0294C28.9158 54.8751 28.7689 54.7544 28.5973 54.6817C28.4202 54.5943 28.2201 54.5647 28.0252 54.5971C27.8303 54.6294 27.6505 54.722 27.5111 54.862C27.0301 55.3189 26.5552 55.7837 26.102 56.2679C25.6765 56.7227 25.6774 57.2821 26.0645 57.6842C26.4726 58.108 27.0382 58.1105 27.521 57.6587C27.9768 57.2321 28.4099 56.7811 28.8491 56.3369C28.9593 56.2385 29.0465 56.1171 29.1048 55.9814C29.163 55.8456 29.1908 55.6987 29.1862 55.5511ZM32.5191 1.99638C30.8968 1.99638 30.9059 1.99586 30.9968 3.60752C31.0143 3.91622 31.118 4.00493 31.4116 3.99807C32.0907 3.98221 32.7719 3.96736 33.4496 4.00276C33.8779 4.02514 34.01 3.90778 34.0052 3.46162C33.9895 1.99659 34.0092 1.99638 32.5191 1.99638V1.99638ZM20.7215 47.0242C20.7086 46.8502 20.6506 46.6827 20.5532 46.5381C20.4557 46.3935 20.3221 46.2768 20.1657 46.1997C20.0027 46.1057 19.8142 46.0653 19.627 46.0841C19.4397 46.103 19.2631 46.1802 19.1221 46.3049C18.7949 46.5829 18.4912 46.8875 18.2141 47.2155C18.0928 47.359 18.019 47.5368 18.0031 47.7241C17.9871 47.9113 18.0297 48.099 18.1251 48.261C18.2061 48.4302 18.337 48.5705 18.5002 48.6631C18.6634 48.7556 18.8511 48.7959 19.0379 48.7786C19.6476 48.76 20.7011 47.7089 20.7215 47.0242H20.7215Z" fill="url(#paint0_linear_1134_2783)"/>
</g>
<defs>
<linearGradient id="paint0_linear_1134_2783" x1="30" y1="60" x2="30" y2="0.899998" gradientUnits="userSpaceOnUse">
<stop offset="0.0109495" stop-color="#452178"/>
<stop offset="1" stop-color="#452178"/>
</linearGradient>
<clipPath id="clip0_1134_2783">
<rect width="60" height="60" rx="10" fill="white"/>
</clipPath>
</defs>
</svg>
