<svg width="60" height="61" viewBox="0 0 60 61" fill="none" xmlns="http://www.w3.org/2000/svg">
<path d="M23.7267 39.1304L18.7503 36.1961V31.8751C18.7558 30.9866 18.4439 30.1252 17.8701 29.4464C17.2967 28.7675 16.4994 28.3159 15.6222 28.1732C14.7454 28.0305 13.846 28.2058 13.0868 28.6679C12.9662 27.403 12.2062 26.2885 11.0732 25.7139C9.94025 25.1388 8.59216 25.1845 7.50014 25.8336C7.50014 25.8336 7.62193 21.5625 3.75008 21.5625C2.75564 21.5625 1.80176 21.9576 1.09824 22.6607C0.395107 23.3643 1.08884e-05 24.3182 1.08884e-05 25.3126V39.3753C-0.00250037 40.9612 0.429425 42.5176 1.24889 43.8754C2.0667 45.2314 3.23482 46.3419 4.63027 47.0902L14.0628 52.1255V59.0631C14.0628 59.5809 14.4826 60.0007 15.0003 60.0007C15.518 60.0007 15.9378 59.5809 15.9378 59.0631V51.563C15.9378 51.2169 15.7469 50.8992 15.4418 50.736L5.5184 45.4411C4.41888 44.8518 3.49894 43.9775 2.85489 42.9098C2.21119 41.8434 1.87217 40.6209 1.87511 39.3753V25.3126C1.87511 24.6425 2.23253 24.0235 2.81262 23.6887C3.39272 23.3539 4.10758 23.3539 4.68766 23.6887C5.26774 24.0235 5.62517 24.6425 5.62517 25.3126V33.7502C5.62517 34.0637 5.7817 34.3563 6.04245 34.5304L11.0552 37.8753C10.8254 38.7044 10.8568 39.5842 11.1452 40.3949C11.4332 41.2052 11.9643 41.9075 12.6657 42.4056L17.2595 45.7618C17.678 46.0674 18.2648 45.9757 18.5703 45.5576C18.8759 45.139 18.7842 44.5523 18.3661 44.2468L13.7589 40.8755C13.1432 40.4373 12.7774 39.7283 12.7782 38.9724C12.7787 38.607 12.864 38.2466 13.0269 37.9193C13.3148 37.343 13.8267 36.9102 14.4423 36.721C15.0584 36.5323 15.7252 36.6043 16.2864 36.9198L22.7871 40.7524V40.7528C23.8393 41.3551 24.7136 42.2248 25.3217 43.2736C25.9298 44.3225 26.2504 45.5131 26.2504 46.7257V59.0634C26.2504 59.5811 26.6702 60.0009 27.188 60.0009C27.7057 60.0009 28.1255 59.5811 28.1255 59.0634V46.7257C28.1259 45.1842 27.7191 43.6704 26.9469 42.3369C26.1743 41.0035 25.0635 39.8973 23.7266 39.1305L23.7267 39.1304ZM7.49958 29.0626C7.49958 28.3925 7.85701 27.7735 8.4371 27.4387C9.01719 27.1039 9.73205 27.1039 10.3121 27.4387C10.8922 27.7735 11.2496 28.3925 11.2496 29.0626V35.7491L7.49958 33.2487V29.0626ZM13.9074 34.9237C13.6362 35.0062 13.3742 35.1154 13.1247 35.2502V31.8751C13.1247 31.2051 13.4821 30.5861 14.0622 30.2512C14.6423 29.9164 15.3572 29.9164 15.9373 30.2512C16.5173 30.5861 16.8748 31.2051 16.8748 31.8751V35.1413C15.9465 34.7056 14.8897 34.6282 13.9074 34.9237L13.9074 34.9237Z" fill="#452178"/>
<path d="M58.9002 22.6634C58.1991 21.9578 57.2449 21.5619 56.2501 21.5635C52.1869 21.5635 52.5 25.8346 52.5 25.8346C51.4077 25.188 50.0607 25.144 48.9287 25.7182C47.7966 26.2925 47.0365 27.4053 46.9134 28.6689C46.1533 28.2123 45.2555 28.0411 44.3808 28.1851C43.506 28.3291 42.7108 28.7794 42.1374 29.4557C41.564 30.1316 41.2493 30.9896 41.2497 31.8761V36.197L36.2863 39.1238C34.9466 39.8901 33.8329 40.9967 33.0577 42.3318C32.283 43.6665 31.8749 45.1828 31.8745 46.7265V59.0642C31.8745 59.5819 32.2943 60.0017 32.812 60.0017C33.3298 60.0017 33.7495 59.5819 33.7495 59.0642V46.7265C33.7504 45.5115 34.0722 44.3186 34.6829 43.2682C35.2931 42.2181 36.1708 41.3479 37.2258 40.7461L43.7022 36.9273C44.2639 36.6072 44.9327 36.5322 45.5513 36.7202C46.1699 36.9081 46.6838 37.3421 46.9731 37.9201C47.1359 38.2474 47.2213 38.6077 47.2217 38.9731C47.2213 39.7344 46.8509 40.4485 46.229 40.8875L41.6351 44.2437C41.2166 44.5492 41.1249 45.136 41.4305 45.5545C41.736 45.9726 42.3228 46.0642 42.7413 45.7587L47.323 42.4109C48.0274 41.9141 48.5611 41.2118 48.8515 40.4002C49.142 39.5882 49.1742 38.7068 48.9449 37.876L53.9576 34.5348C54.2196 34.3598 54.3762 34.0656 54.3749 33.7509V25.3132C54.3749 24.6431 54.7323 24.0241 55.3124 23.6893C55.8925 23.3545 56.6074 23.3545 57.1875 23.6893C57.7675 24.0241 58.125 24.6432 58.125 25.3132V39.3759C58.1279 40.624 57.7876 41.8491 57.1414 42.9168C56.499 43.9807 55.5815 44.852 54.4867 45.4397L44.5582 50.7367C44.2531 50.8999 44.0623 51.2176 44.0623 51.5637V59.0639C44.0623 59.5816 44.4821 60.0014 44.9998 60.0014C45.5175 60.0014 45.9373 59.5816 45.9373 59.0639V52.1263L55.3735 47.0917C56.766 46.3451 57.9316 45.2372 58.7486 43.8845C59.5702 42.5247 60.0034 40.9652 60 39.376V25.3133C60.0026 24.3184 59.6066 23.3638 58.9001 22.6632L58.9002 22.6634ZM46.0921 34.9251C45.1098 34.6304 44.053 34.7083 43.1247 35.1436V31.8765C43.1247 31.2064 43.4822 30.5874 44.0622 30.2526C44.6423 29.9178 45.3572 29.9178 45.9373 30.2526C46.5174 30.5874 46.8748 31.2064 46.8748 31.8765V35.2516C46.6253 35.1168 46.3633 35.0076 46.0921 34.9251L46.0921 34.9251ZM52.4999 33.2501L48.7498 35.7504V29.0639C48.7498 28.3939 49.1072 27.7749 49.6873 27.44C50.2674 27.1052 50.9823 27.1052 51.5624 27.44C52.1425 27.7749 52.4999 28.3939 52.4999 29.0639V33.2501Z" fill="#452178"/>
<path d="M47.0255 18.3005C47.6182 17.0047 48.0614 15.6462 48.3468 14.2503C48.6063 12.9536 48.7415 11.6353 48.7507 10.3127C48.7599 7.61323 47.727 5.01454 45.8679 3.05743C44.0883 1.10161 41.5641 -0.00915757 38.9198 5.68767e-05C36.2759 0.00884607 33.7588 1.13676 31.9926 3.10436C31.4649 3.63339 30.7484 3.93054 30.0012 3.93054C29.2542 3.93054 28.5376 3.63339 28.0099 3.10436C27.1154 2.15345 26.0461 1.38372 24.8608 0.836321C23.6797 0.290548 22.3951 0.00553197 21.094 8.90201e-05C18.4505 0.0122264 15.9306 1.11922 14.1329 3.05746C12.2737 5.01457 11.2408 7.61326 11.2501 10.3128C11.2501 11.6358 11.3852 12.955 11.6539 14.2503C11.9298 15.6105 12.3604 16.9344 12.9375 18.1963C14.0751 20.7468 15.7769 23.0052 17.9147 24.8019L29.3996 34.4676V34.468C29.7486 34.7614 30.2584 34.7614 30.6071 34.468L42.0941 24.8011C44.1972 23.0244 45.8814 20.8045 47.0252 18.3004L47.0255 18.3005ZM30.0002 32.525L19.125 23.3683C17.201 21.7515 15.6696 19.7183 14.6467 17.4226C14.2893 16.6396 13.9942 15.8297 13.7644 15.0002H21.5625C21.8111 15.0002 22.0497 14.9014 22.2255 14.7257L26.21 10.7412L33.0539 18.4363C33.2255 18.6292 33.4686 18.7427 33.7269 18.7502H33.7503C33.9989 18.7502 34.2375 18.6514 34.4133 18.4756L37.8884 15.0001H43.1255C43.6432 15.0001 44.063 14.5803 44.063 14.0626C44.063 13.5448 43.6432 13.125 43.1255 13.125H37.5004C37.2518 13.125 37.0132 13.2238 36.8375 13.3996L33.7905 16.4466L26.9466 8.75145C26.775 8.55892 26.5314 8.44549 26.2736 8.43796C26.0158 8.43043 25.7659 8.52962 25.5834 8.7121L21.1747 13.1252H13.3744C13.2158 12.196 13.1325 11.2552 13.125 10.3126C13.1162 8.09441 13.9641 5.95816 15.4914 4.34895C16.9365 2.78571 18.9648 1.89009 21.0939 1.87498C22.1243 1.88042 23.1417 2.10644 24.0772 2.53878C25.0453 2.98786 25.9188 3.61815 26.6495 4.39581C27.5222 5.31532 28.7338 5.83562 30.0011 5.83562C31.2684 5.83562 32.4806 5.31538 33.3527 4.39581C34.7653 2.8016 36.7906 1.88498 38.9209 1.87619C41.0508 1.8674 43.0837 2.76725 44.5092 4.35016C46.0364 5.95862 46.8839 8.09434 46.8756 10.3126C46.8756 11.5096 46.7529 12.7032 46.5089 13.8751C46.3001 14.9026 45.992 15.9071 45.5894 16.8752H39.3754C39.1268 16.8752 38.8883 16.9739 38.7125 17.1497L33.7905 22.0717L26.9466 14.3766C26.7763 14.1849 26.5339 14.0711 26.2774 14.0627C26.0191 14.0543 25.7693 14.1539 25.5872 14.3373L23.0496 16.8753H17.8125C17.2947 16.8753 16.8749 17.2951 16.8749 17.8128C16.8749 18.3305 17.2947 18.7503 17.8125 18.7503H23.4376C23.6862 18.7503 23.9247 18.6516 24.1005 18.4758L26.21 16.3663L33.0538 24.0615C33.2254 24.2544 33.4686 24.3678 33.7268 24.3754H33.7503C33.9989 24.3754 34.2375 24.2766 34.4132 24.1008L39.7634 18.7502H44.6732C43.6968 20.5047 42.4122 22.0688 40.8808 23.3675L30.0002 32.525Z" fill="#452178"/>
</svg>
