<svg width="66" height="60" viewBox="0 0 66 60" fill="none" xmlns="http://www.w3.org/2000/svg">
<g clip-path="url(#clip0_1134_2829)">
<path d="M65.5917 40.9329C65.2686 42.3177 64.3095 43.2311 63.2963 44.1342C59.6313 47.4011 55.9465 50.6479 52.3571 53.9964C50.268 55.9452 47.8768 56.9736 45.0663 57.3425C39.2308 58.1084 33.4085 58.9776 27.5883 59.8545C25.7305 60.1343 23.9845 60.0377 22.2065 59.3254C18.3104 57.7645 14.3607 56.3378 10.4405 54.8366C10.0028 54.669 9.84505 54.6706 9.77159 55.201C9.53815 56.8868 8.34158 57.9969 6.63889 58.1222C5.46778 58.211 4.29154 58.2086 3.12078 58.1153C2.33612 58.0596 1.59663 57.7274 1.03383 57.1778C0.471023 56.6282 0.121389 55.8968 0.047113 55.1137C-0.00567877 54.454 -0.0141162 53.7914 0.0218608 53.1306C0.0404266 52.5978 0.327014 52.248 0.886925 52.2006C1.41612 52.1558 1.80375 52.482 1.8635 53.0774C1.91445 53.585 1.87753 54.1008 1.89796 54.6122C1.94046 55.676 2.51617 56.261 3.58783 56.291C4.48373 56.316 5.38156 56.3175 6.27734 56.2903C7.34083 56.2581 7.95377 55.652 7.9551 54.5983C7.96432 47.2973 7.96384 39.9964 7.95369 32.6954C7.95212 31.6604 7.34903 31.0797 6.30896 31.0514C5.47699 31.0288 4.64393 31.0422 3.81139 31.0463C2.45339 31.053 1.90018 31.5929 1.89594 32.9394C1.88869 35.245 1.89386 37.5506 1.89384 39.8561C1.89382 42.1404 1.89282 44.4246 1.89086 46.7088C1.89416 46.964 1.8708 47.2189 1.82115 47.4693C1.78736 47.673 1.67839 47.8565 1.51577 47.9837C1.35315 48.1108 1.14873 48.1723 0.942942 48.156C0.456379 48.1553 0.144626 47.8803 0.041336 47.4048C0.0112851 47.2151 0.00131615 47.0227 0.0115896 46.831C0.0101993 42.1985 0.01017 37.566 0.0115015 32.9335C0.0132405 30.5609 1.41898 29.1632 3.79992 29.1556C4.58978 29.153 5.3797 29.1496 6.16953 29.1563C8.29409 29.1744 9.68632 30.4295 9.82362 32.5413C9.85915 33.0878 10.0565 33.1541 10.5053 33.1377C11.6154 33.1042 12.7265 33.1567 13.8285 33.2948C14.1022 33.3273 14.2796 33.3335 14.2787 32.9784C14.2721 30.4216 14.2752 27.8648 14.2752 25.1223C13.597 25.7563 13.0468 26.2724 12.4946 26.7862C12.0727 27.1787 11.6669 27.5914 11.2214 27.9552C9.8046 29.1119 7.87043 28.9832 6.65779 27.6718C5.46809 26.3852 5.43565 24.4258 6.71268 23.1546C8.58799 21.2878 10.5459 19.5041 12.4648 17.6808C13.1134 17.0646 13.9963 16.542 14.3233 15.7832C14.6501 15.0246 14.425 14.0241 14.4249 13.1297C14.4247 11.1444 14.4089 9.15902 14.4092 7.17368C14.4094 5.78907 14.962 5.23732 16.3448 5.23015C17.7964 5.22262 19.2481 5.22344 20.6998 5.22231C22.255 5.2211 22.7608 5.72573 22.778 7.28872C22.7798 7.45604 22.7936 7.62321 22.8024 7.80055C23.0767 7.80133 23.1785 7.5846 23.3225 7.44957C25.5335 5.37593 27.7411 3.29853 29.9451 1.21739C31.6634 -0.401297 33.4346 -0.404235 35.1455 1.19931C39.4912 5.27215 43.8384 9.34335 48.187 13.4129C48.2494 13.4713 48.3137 13.5276 48.3745 13.5874C48.9051 14.1099 48.9768 14.6867 48.5628 15.0963C48.1704 15.4847 47.6197 15.4379 47.091 14.9438C43.8158 11.8829 40.5428 8.81954 37.2721 5.75384C36.1189 4.67422 34.9689 3.59113 33.8113 2.51626C32.898 1.66819 32.2055 1.66722 31.3054 2.51471C23.6584 9.71432 16.0123 16.9149 8.36711 24.1164C7.96782 24.4924 7.64528 24.8969 7.67311 25.4922C7.68154 25.7328 7.75142 25.9672 7.8761 26.173C8.00078 26.3789 8.17609 26.5494 8.38535 26.6683C8.59461 26.7873 8.83084 26.8506 9.07152 26.8523C9.31219 26.8541 9.54931 26.7942 9.76026 26.6783C10.0499 26.4981 10.317 26.2842 10.5562 26.041C17.535 19.4708 24.5118 12.8984 31.4864 6.32376C32.4213 5.44263 32.6886 5.43942 33.6215 6.31307C40.6643 12.9086 47.7066 19.5047 54.7484 26.1013C55.1464 26.4744 55.5571 26.8238 56.1342 26.7914C56.3926 26.7862 56.6443 26.7087 56.8608 26.5677C57.0773 26.4267 57.25 26.2278 57.3592 25.9937C57.4826 25.7667 57.537 25.5086 57.5159 25.2512C57.4948 24.9937 57.3991 24.7479 57.2405 24.544C57.0733 24.3234 56.8857 24.1189 56.6802 23.9335C55.0936 22.4422 53.5048 20.9533 51.9138 19.4668C51.7377 19.3122 51.5784 19.1395 51.4387 18.9514C51.3129 18.7876 51.2525 18.5827 51.2694 18.3768C51.2862 18.1709 51.3791 17.9786 51.5299 17.8373C51.6605 17.6779 51.8445 17.5712 52.0479 17.5373C52.2512 17.5033 52.4599 17.5443 52.6352 17.6527C52.7655 17.7255 52.886 17.8147 52.9936 17.9181C54.7704 19.581 56.5702 21.2204 58.312 22.9193C60.0439 24.6085 59.6256 27.3137 57.5233 28.345C56.2873 28.9513 54.8492 28.721 53.7294 27.7099C52.969 27.0233 52.2348 26.3079 51.4834 25.6112C51.3313 25.4702 51.2121 25.281 50.9862 25.2223C50.8155 25.3808 50.8954 25.5848 50.8956 25.7631C50.9012 31.1 50.9113 36.437 50.9261 41.7739C50.9266 41.9605 50.837 42.2186 50.9972 42.3187C51.2106 42.4521 51.3709 42.194 51.534 42.0853C54.0555 40.4063 56.5634 38.7067 59.0909 37.0369C61.3524 35.5428 64.0657 36.2079 65.1839 38.515C65.3409 38.8861 65.477 39.2657 65.5917 39.652V40.9329ZM9.8523 43.8313C9.8523 46.5631 9.864 49.2951 9.84097 52.0267C9.83706 52.4901 9.99022 52.6883 10.4178 52.8484C14.6872 54.4471 18.9556 56.0494 23.2059 57.6979C24.3613 58.1435 25.615 58.2718 26.8367 58.0694C32.9959 57.1629 39.1564 56.2631 45.3227 55.4068C47.365 55.1584 49.2773 54.2733 50.7882 52.877C54.7215 49.2725 58.711 45.7294 62.6765 42.1599C62.8731 41.9959 63.055 41.8151 63.2203 41.6195C63.4936 41.3004 63.6639 40.9059 63.7087 40.4881C63.7535 40.0702 63.6707 39.6486 63.4711 39.2788C63.0762 38.4837 62.396 38.1021 61.5006 38.0984C60.9105 38.096 60.4434 38.3802 59.9787 38.6915C55.8321 41.469 51.6849 44.2455 47.537 47.0211C47.2332 47.2246 46.9349 47.4288 46.5444 47.4056C45.1174 47.3209 43.6879 47.2664 42.2637 47.148C38.5861 46.8421 34.9109 46.5068 31.2344 46.1861C28.1955 45.921 25.1559 45.6638 22.1173 45.3941C21.4165 45.3318 20.9955 44.9128 21.0387 44.3708C21.0839 43.8039 21.5457 43.4544 22.2442 43.5147C25.8147 43.8229 29.3839 44.145 32.9539 44.4586C35.674 44.6976 38.3952 44.9231 41.114 45.1746C41.5758 45.2174 41.7087 45.1021 41.6417 44.6309C41.395 42.895 39.9857 41.4164 38.2355 41.1947C35.6545 40.8677 33.0713 40.5456 30.4814 40.3028C27.0105 39.9773 23.6473 39.3189 20.597 37.5222C17.4964 35.696 14.1319 34.9452 10.5539 35.0093C10.0172 35.0189 9.8283 35.1083 9.83627 35.6999C9.87274 38.41 9.8523 41.1208 9.8523 43.8313ZM49.0613 33.5448H49.0402C49.0402 30.344 49.0323 27.1432 49.0494 23.9425C49.0608 23.7446 49.0265 23.5467 48.949 23.3642C48.8716 23.1818 48.7532 23.0196 48.6029 22.8903C43.3926 18.0277 38.192 13.1547 33.001 8.27146C32.6612 7.95165 32.486 7.93744 32.1399 8.26491C26.9322 13.1926 21.7145 18.1096 16.4868 23.0161C16.3739 23.1091 16.2837 23.2268 16.2232 23.36C16.1628 23.4932 16.1336 23.6385 16.138 23.7848C16.1538 26.9215 16.1562 30.0583 16.1452 33.1951C16.1438 33.5753 16.2427 33.7541 16.6313 33.8519C18.2829 34.2828 19.8678 34.9381 21.3415 35.7994C22.7821 36.6321 24.3244 37.2747 25.93 37.7114C26.3214 37.8163 26.4592 37.744 26.4479 37.3114C26.4202 36.2452 26.4361 35.1778 26.4347 34.1109C26.4319 31.8917 26.4199 29.6724 26.4301 27.4532C26.4355 26.2839 27.0731 25.5633 28.1374 25.556C31.1033 25.5359 34.0695 25.5422 37.0355 25.5417C37.8085 25.5416 38.3124 25.9603 38.6245 26.6288C38.772 26.9446 38.7358 27.2982 38.7367 27.6387C38.7467 31.3516 38.756 35.0645 38.7646 38.7774C38.7654 39.0651 38.6952 39.3626 39.1118 39.4849C41.8416 40.2867 43.2607 42.1711 43.5518 44.9533C43.5861 45.281 43.7119 45.3738 44.0218 45.4041C46.255 45.6229 46.2545 45.6288 48.0979 44.3907C48.2489 44.2722 48.4092 44.1659 48.5771 44.073C48.9868 43.8855 49.0727 43.5763 49.0704 43.1471C49.0536 39.9464 49.0613 36.7456 49.0613 33.5448H49.0613ZM36.8952 33.2443H36.8829C36.8829 31.496 36.8684 29.7475 36.8927 27.9996C36.899 27.5412 36.8006 27.3678 36.2991 27.3738C33.8262 27.4036 31.3528 27.4037 28.8797 27.3892C28.4404 27.3866 28.2992 27.5043 28.3021 27.9585C28.3231 31.1778 28.3256 34.3972 28.3094 37.6166C28.3072 38.058 28.4511 38.1932 28.8763 38.2387C31.3758 38.5061 33.8732 38.7929 36.3685 39.0989C36.8102 39.1535 36.9082 39.038 36.9035 38.617C36.8839 36.8263 36.8952 35.0352 36.8952 33.2443L36.8952 33.2443ZM16.2827 14.0829C17.8566 12.6036 19.2941 11.2506 20.7351 9.90129C20.7944 9.84119 20.8394 9.76853 20.8669 9.68868C20.8944 9.60883 20.9035 9.52383 20.8938 9.43996C20.8897 8.80124 20.8812 8.16227 20.8954 7.52386C20.9018 7.23824 20.8355 7.10187 20.5111 7.10581C19.2338 7.12133 17.9564 7.12222 16.6788 7.10847C16.3746 7.10562 16.276 7.20713 16.2774 7.51123C16.2875 9.63753 16.2827 11.7639 16.2827 14.0829Z" fill="url(#paint0_linear_1134_2829)"/>
</g>
<defs>
<linearGradient id="paint0_linear_1134_2829" x1="32.7958" y1="60" x2="32.7958" y2="0.899998" gradientUnits="userSpaceOnUse">
<stop offset="0.0109495" stop-color="#452178"/>
<stop offset="1" stop-color="#452178"/>
</linearGradient>
<clipPath id="clip0_1134_2829">
<rect width="65.5905" height="60" rx="10" fill="white"/>
</clipPath>
</defs>
</svg>
