<svg width="64" height="60" viewBox="0 0 64 60" fill="none" xmlns="http://www.w3.org/2000/svg">
<path fill-rule="evenodd" clip-rule="evenodd" d="M62.9547 35.929C63.02 35.6754 63.054 35.4145 63.054 35.1526V34.1319C63.054 33.9268 63.0277 33.7226 62.9765 33.524C62.921 33.3085 62.8655 33.0931 62.806 32.8787C62.0465 30.1432 60.2984 28.3523 57.5703 27.6113C56.8841 27.425 56.712 27.1847 56.7427 26.5232C56.8445 24.3323 56.4697 22.2449 55.323 20.3228C52.8659 16.2042 47.8174 14.6985 43.7578 17.0151C40.4881 18.8809 38.9197 21.8331 38.9013 25.5676C38.8789 30.1192 38.8833 34.671 38.8878 39.2228C38.8898 41.3404 38.8919 43.458 38.8913 45.5755C38.8903 48.7842 37.9683 51.6634 35.8736 54.1431C34.9483 55.2535 33.8023 56.1595 32.5082 56.8033C31.2141 57.4472 29.8002 57.8149 28.3564 57.8832C26.9126 57.9515 25.4704 57.7188 24.1213 57.2C22.7722 56.6811 21.5457 55.8874 20.5198 54.8693C17.6532 52.0397 16.6657 48.5425 16.8094 44.6383C16.8131 44.538 16.799 44.434 16.8288 44.3381C16.8437 44.2899 16.8688 44.2454 16.9023 44.2076C16.9358 44.1699 16.977 44.1397 17.0231 44.1191C17.1148 44.0781 17.2198 44.0821 17.3187 44.0641C18.7866 43.797 19.4876 42.7681 19.8065 41.3857C20.0306 40.4144 19.993 39.4243 19.9557 38.4408C19.9503 38.2977 19.9448 38.1548 19.9402 38.0121C19.9212 37.4224 20.1249 37.2136 20.6615 37.0564C26.7999 35.2576 31.7878 29.6338 31.5343 22.4446C31.5328 22.4025 31.5314 22.3615 31.53 22.3217C31.4851 21.0134 31.484 20.9814 30.1059 21.0272C29.5109 21.047 29.4159 20.8381 29.4168 20.3063C29.4234 16.4668 29.4073 12.6272 29.3912 8.78769C29.3899 8.482 29.3887 8.17631 29.3874 7.87063C29.3751 4.91964 28.1578 3.23105 25.353 2.28221C25.0813 2.1903 24.9833 2.002 24.8711 1.77717C24.6421 1.31262 24.3011 0.912333 23.8789 0.612355C23.4567 0.312377 22.9665 0.12213 22.4525 0.058751C21.9384 -0.00462774 21.4167 0.0608535 20.9343 0.249292C20.4519 0.437731 20.0239 0.743209 19.6889 1.13822C19.3539 1.53323 19.1224 2.00536 19.0153 2.51209C18.9082 3.01882 18.9288 3.54424 19.0753 4.04102C19.2218 4.5378 19.4896 4.99034 19.8545 5.35788C20.2194 5.72542 20.67 5.99643 21.1657 6.14648C21.8271 6.35596 22.54 6.33435 23.1875 6.0852C23.8349 5.83606 24.3784 5.37419 24.7288 4.77541C24.9756 4.34294 25.1914 4.35994 25.5467 4.55521C26.7716 5.22843 27.2748 6.2857 27.2771 7.65231C27.2844 11.8796 27.297 16.1071 27.3448 20.334C27.3516 20.9312 27.1537 21.0755 26.6209 21.0176C26.4479 20.9988 26.2726 21.0038 26.097 21.0088C25.9433 21.0132 25.7895 21.0176 25.637 21.006C25.3009 20.9804 25.2246 21.1256 25.2261 21.4341C25.2561 22.2951 25.2271 23.1572 25.1392 24.0143C24.7897 26.6585 23.5158 28.7282 21.2481 30.1161C18.8061 31.6105 16.1516 31.8972 13.4314 31.0673C10.451 30.158 8.49513 28.1721 7.64406 25.144C7.45114 24.3673 7.35563 23.5696 7.35971 22.7693C7.355 22.5942 7.3775 22.4026 7.39998 22.2112C7.45035 21.7821 7.50064 21.3538 7.24442 21.114C6.99876 20.8842 6.58362 20.9301 6.16422 20.9765C5.96395 20.9987 5.76271 21.0209 5.57849 21.0133C5.27103 20.9966 4.96286 20.9974 4.65548 21.0157C4.32135 21.04 4.18806 20.9422 4.18906 20.5769C4.19394 18.7918 4.19382 17.0067 4.1937 15.2216C4.19352 12.5947 4.19334 9.96773 4.2091 7.34088C4.21639 6.12523 4.80346 5.19559 5.87802 4.58271C6.30325 4.34017 6.54146 4.33351 6.83146 4.83464C7.55833 6.09065 9.08183 6.59933 10.4675 6.14929C11.127 5.93595 11.6977 5.5109 12.0909 4.94011C12.4841 4.36931 12.678 3.68467 12.6424 2.99244C12.6068 2.30021 12.3437 1.63909 11.894 1.11165C11.4442 0.58422 10.833 0.219968 10.1551 0.0754179C9.46878 -0.0785001 8.75057 0.0046938 8.11763 0.31143C7.48468 0.618166 6.97437 1.13034 6.66993 1.76439C6.6112 1.90205 6.52025 2.02358 6.40473 2.11873C6.28922 2.21389 6.15253 2.27989 6.00617 2.31116C4.07673 2.86059 2.83473 4.11071 2.29299 6.04727C2.14977 6.60409 2.08376 7.17795 2.09681 7.75274C2.09712 8.85905 2.09685 9.96535 2.09658 11.0717C2.09581 14.1927 2.09505 17.3137 2.10731 20.4347C2.10906 20.8804 2.01835 21.0627 1.53815 21.0212C1.18381 20.9906 0.826112 20.999 0.468409 21.0074C0.209541 21.0135 0 21.2247 0 21.4837V24.0789C0 24.3263 0.0960147 24.5754 0.113911 24.8222C0.116504 24.8579 0.119096 24.8936 0.123603 24.9289C0.312637 26.4581 0.770958 27.9418 1.47734 29.3112C3.53245 33.2767 6.7668 35.8177 11.0069 37.1096C11.4363 37.2404 11.5936 37.4009 11.5793 37.8556C11.5502 38.7776 11.5504 39.7041 11.607 40.6245C11.7165 42.4046 12.6099 43.7473 13.9648 43.997C14.6575 44.1247 14.7868 44.4238 14.7129 45.0084C14.6986 45.2131 14.6974 45.4186 14.7092 45.6235C14.719 49.3932 15.8209 52.7748 18.3457 55.6204C20.8746 58.4706 24.063 60.0457 27.8788 59.999C32.7221 59.9397 36.3458 57.6005 38.8776 53.5393C40.3935 51.1077 40.9933 48.4076 40.993 45.5605C40.9967 38.9525 40.9955 32.3445 40.9893 25.7365C40.9782 24.9365 41.0726 24.1385 41.2701 23.3631C42.0213 20.5477 44.4638 18.3362 47.1213 18.0682C49.8705 17.791 52.4581 19.2752 53.7962 21.8877C54.5905 23.4385 54.6838 25.1048 54.6686 26.8015C54.6646 27.2549 54.5339 27.4276 54.0908 27.5257C52.4833 27.8726 51.041 28.7546 49.9997 30.0275C48.9584 31.3004 48.3796 32.8888 48.3581 34.5332C48.3218 36.1841 48.8428 37.799 49.8372 39.1173C50.8315 40.4357 52.241 41.3805 53.8383 41.7993C55.4355 42.2181 57.1273 42.0864 58.6406 41.4255C60.1538 40.7647 61.4002 39.6132 62.1786 38.1569C62.5622 37.4522 62.7582 36.6914 62.9547 35.929ZM22.764 33.9312C20.6171 35.1497 18.2807 35.7109 15.6948 35.7017C10.1867 35.769 5.14961 32.5974 3.00548 27.6241C2.4665 26.3343 2.16117 24.959 2.10372 23.5623C2.08491 23.22 2.17015 23.0898 2.53224 23.1017C3.27028 23.1259 4.01062 23.1311 4.74814 23.0999C5.14781 23.083 5.27053 23.2105 5.29212 23.6097C5.45341 26.5915 6.67884 29.0732 8.94747 31.0001C14.7901 35.9625 25.3883 33.7866 27.146 24.9312C27.2338 24.4676 27.2884 23.9984 27.3094 23.527C27.3253 23.2257 27.4013 23.1129 27.7315 23.0995L27.7344 23.0994C29.5282 23.0265 29.5756 23.0246 29.2906 24.8154C28.6359 28.9293 26.3346 31.9046 22.764 33.9312ZM59.3926 38.3707C58.4083 39.3498 57.0783 39.9024 55.6899 39.9092C54.3009 39.9062 52.9699 39.3517 51.9896 38.3677C51.0092 37.3837 50.4597 36.0506 50.4619 34.6616C50.4679 31.7819 52.847 29.401 55.7051 29.4145C58.5689 29.4281 60.9585 31.825 60.9508 34.6762C60.9366 36.0645 60.3769 37.3916 59.3926 38.3707ZM15.2982 37.7378C15.4609 37.7376 15.6236 37.7374 15.7862 37.7374C15.9278 37.7377 16.0694 37.7383 16.211 37.739C16.6418 37.7409 17.0724 37.7428 17.5028 37.7348C17.516 37.7346 17.5291 37.7342 17.542 37.7339C17.7237 37.7292 17.8724 37.7253 17.8614 37.9925C17.8478 38.3264 17.8543 38.6613 17.8608 38.9961C17.8743 39.6827 17.8877 40.3693 17.7267 41.0481C17.553 41.7807 17.2452 42.0263 16.4762 42.0357C16.23 42.0387 15.9838 42.0375 15.7375 42.0364C15.4724 42.0352 15.2072 42.034 14.9421 42.0379C14.6941 42.0613 14.4462 41.993 14.2451 41.846C14.044 41.699 13.9037 41.4835 13.8507 41.2401C13.63 40.4819 13.6476 39.7092 13.6652 38.9364C13.6727 38.606 13.6803 38.2757 13.6692 37.9465C13.6616 37.7207 13.7987 37.727 13.942 37.7335C13.9642 37.7345 13.9867 37.7356 14.0087 37.7357C14.4385 37.7389 14.8684 37.7383 15.2982 37.7378ZM9.8549 4.09453C9.73162 4.14411 9.59973 4.16871 9.46687 4.16691C9.32882 4.16928 9.1917 4.14391 9.06363 4.09229C8.93556 4.04067 8.81917 3.96386 8.72135 3.86642C8.62353 3.76897 8.54627 3.65286 8.49417 3.525C8.44207 3.39713 8.41618 3.2601 8.41803 3.12204C8.42937 2.85391 8.54188 2.60005 8.73291 2.41157C8.92394 2.22309 9.17929 2.11399 9.44754 2.10625C9.58566 2.10553 9.72252 2.13255 9.85 2.18572C9.97748 2.2389 10.093 2.31715 10.1896 2.41581C10.2863 2.51448 10.3621 2.63156 10.4127 2.7601C10.4632 2.88864 10.4874 3.02603 10.4839 3.16411C10.4838 3.29698 10.4574 3.42851 10.406 3.55108C10.3547 3.67364 10.2796 3.7848 10.185 3.87809C10.0904 3.97138 9.97817 4.04495 9.8549 4.09453ZM22.8252 2.44544C23.0076 2.64191 23.1083 2.90051 23.1067 3.1686C23.1023 3.30648 23.0702 3.44207 23.0124 3.56734C22.9546 3.69262 22.8723 3.80503 22.7704 3.89794C22.6684 3.99084 22.5488 4.06235 22.4187 4.10823C22.2886 4.15411 22.1506 4.17344 22.0129 4.16506C21.8802 4.16072 21.7496 4.13009 21.6287 4.07496C21.5079 4.01982 21.3992 3.94128 21.3089 3.84386C21.2186 3.74644 21.1485 3.63208 21.1027 3.5074C21.0569 3.38272 21.0362 3.25019 21.042 3.11748C21.0447 2.97959 21.0752 2.84366 21.1315 2.71778C21.1879 2.5919 21.269 2.47864 21.3701 2.38475C21.4711 2.29086 21.59 2.21825 21.7196 2.17125C21.8493 2.12424 21.9871 2.10381 22.1248 2.11115C22.3923 2.12944 22.6427 2.24898 22.8252 2.44544ZM54.5085 37.5777C54.8895 37.732 55.2973 37.8095 55.7084 37.8056C56.5386 37.8009 57.3337 37.4697 57.9217 36.8836C58.5097 36.2974 58.8434 35.5034 58.8506 34.6732C58.8416 33.8424 58.5091 33.0479 57.9236 32.4584C57.3382 31.8689 56.546 31.5309 55.7153 31.5161C55.299 31.5163 54.8869 31.599 54.5027 31.7593C54.1185 31.9195 53.7698 32.1543 53.4767 32.4499C53.1836 32.7456 52.952 33.0964 52.7951 33.482C52.6382 33.8676 52.5592 34.2804 52.5626 34.6967C52.5635 35.1078 52.6458 35.5147 52.8047 35.8939C52.9636 36.2731 53.1959 36.6171 53.4883 36.906C53.7807 37.195 54.1274 37.4233 54.5085 37.5777ZM54.9973 33.9114C55.1934 33.728 55.4527 33.6275 55.7211 33.6307C55.9891 33.6444 56.2422 33.758 56.4305 33.9491C56.6188 34.1403 56.7285 34.3951 56.7381 34.6632C56.7372 34.8012 56.7086 34.9377 56.6543 35.0645C56.5999 35.1914 56.5208 35.3062 56.4216 35.4021C56.3223 35.498 56.205 35.5732 56.0763 35.6232C55.9477 35.6733 55.8104 35.6971 55.6724 35.6934C55.5343 35.693 55.3977 35.6643 55.2712 35.609C55.1446 35.5536 55.0308 35.4729 54.9367 35.3718C54.8426 35.2707 54.7703 35.1513 54.7242 35.0211C54.6782 34.8909 54.6593 34.7527 54.6688 34.6149C54.6835 34.3468 54.8012 34.0948 54.9973 33.9114Z" fill="url(#paint0_linear_1134_2798)"/>
<defs>
<linearGradient id="paint0_linear_1134_2798" x1="31.527" y1="60" x2="31.527" y2="0.899998" gradientUnits="userSpaceOnUse">
<stop offset="0.0109495" stop-color="#452178"/>
<stop offset="1" stop-color="#452178"/>
</linearGradient>
</defs>
</svg>
