<svg width="60" height="60" viewBox="0 0 60 60" fill="none" xmlns="http://www.w3.org/2000/svg">
<path d="M29.9927 17.9194C26.8214 17.9194 23.7802 19.1791 21.538 21.4213C19.2958 23.6635 18.0361 26.7047 18.0361 29.876C18.0361 33.0473 19.2958 36.0885 21.538 38.3307C23.7802 40.5729 26.8214 41.8326 29.9927 41.8326C33.164 41.8326 36.2052 40.5729 38.4474 38.3307C40.6896 36.0885 41.9493 33.0473 41.9493 29.876C41.9461 26.7061 40.6851 23.6667 38.4434 21.4253C36.2021 19.1836 33.1626 17.9225 29.9927 17.9194ZM34.0795 28.8947H30.8515V24.9371C31.9386 24.9808 33.019 25.1258 34.0795 25.3694V28.8947ZM28.9145 28.8947H25.6865V25.4275C26.7457 25.169 27.8261 25.0069 28.9145 24.9434V28.8947ZM23.7495 28.8947H20.1792C20.6507 27.7585 21.9482 26.7448 23.7234 26.0283L23.7495 28.8947ZM20.2054 30.8316H23.7495V33.698C21.9482 32.9941 20.6507 31.9808 20.1792 30.8442L20.2054 30.8316ZM25.6865 30.8316H28.9145V34.7955C27.8256 34.7352 26.7448 34.5731 25.6865 34.3114V30.8316ZM30.8515 30.8316H34.0795V34.3951C33.019 34.6392 31.9386 34.7842 30.8515 34.8279V30.8316ZM36.0165 30.8316H39.8061C39.3089 32.0197 37.9209 33.0653 36.0165 33.7885V30.8316ZM39.8061 28.8947H36.016V25.9508C37.9209 26.6479 39.3088 27.7198 39.8061 28.9077V28.8947ZM34.0795 23.368C33.0154 23.1559 31.9359 23.0285 30.8515 22.987V19.8882C31.967 19.9837 33.0586 20.2674 34.0795 20.7277V23.368ZM28.9145 22.9938C27.8288 23.0492 26.7493 23.1919 25.6865 23.4198V20.8376C26.7007 20.3422 27.7928 20.0256 28.9145 19.9013V22.9938ZM23.7495 22.0643V23.9688C22.8452 24.2787 21.9788 24.6903 21.1673 25.1951C21.8019 23.995 22.671 22.9345 23.7239 22.077L23.7495 22.0643ZM21.1673 34.5315V34.531C21.9789 35.0363 22.8453 35.4479 23.7495 35.7578V37.6623C22.6759 36.8107 21.7865 35.7497 21.1348 34.5442L21.1673 34.5315ZM25.6865 36.3067C26.7493 36.5345 27.8288 36.6768 28.9145 36.7327V39.8189V39.8185C27.7927 39.6942 26.7007 39.3776 25.6865 38.8827V36.3067ZM30.8515 36.7394V36.739C31.9359 36.698 33.0154 36.5706 34.0795 36.358V38.9988C33.0586 39.4586 31.967 39.7423 30.8515 39.8377V36.7394ZM36.0165 37.85L36.016 35.8545C37.0104 35.5415 37.9619 35.1078 38.8505 34.5634C38.1565 35.8558 37.1892 36.9817 36.016 37.8625L36.0165 37.85ZM36.0165 23.8852L36.016 21.8897C37.1914 22.7764 38.1587 23.9091 38.8505 25.2083C37.9628 24.657 37.0113 24.2171 36.016 23.8978L36.0165 23.8852Z" fill="#452178"/>
<path d="M59.871 44.5047L56.9591 39.3398V39.3402C56.384 38.3166 56.1854 37.1245 56.3975 35.9699L57.4625 30.1597H57.463C57.8507 28.0592 57.3013 25.894 55.9584 24.2327L44.557 10.1066C43.9266 9.31217 42.9295 8.90101 41.9222 9.02035C40.9147 9.14014 40.0416 9.77286 39.6141 10.6925C39.1867 11.6125 39.2664 12.688 39.8249 13.535C39.5119 14.0592 39.3624 14.6649 39.3957 15.2742C39.429 15.884 39.6438 16.4694 40.0118 16.9567L44.8989 23.3096C44.8989 23.3871 44.8602 23.4583 44.8539 23.542L43.5628 35.163V35.1625C43.3254 37.4345 43.8186 39.7235 44.9705 41.6961L50.0319 50.2827C50.303 50.7443 50.897 50.8992 51.3586 50.6281C51.8202 50.357 51.9751 49.763 51.704 49.3014L46.6427 40.7148C45.6988 39.1039 45.2957 37.2323 45.4934 35.3756L46.7845 23.7546C46.8417 23.1237 47.3938 22.6549 48.0257 22.7008C48.6575 22.7468 49.1367 23.2899 49.1024 23.9226L48.7147 34.5881C48.6971 35.1231 49.116 35.5712 49.651 35.5888C50.186 35.6068 50.634 35.1875 50.6516 34.6529L51.0195 23.9813V23.9808C51.0502 23.1815 50.7691 22.4015 50.2355 21.8052C49.7018 21.209 48.9579 20.8433 48.1599 20.7852C48.0284 20.7753 47.8969 20.7753 47.7658 20.7852L41.484 12.5539C41.1697 12.1387 41.2255 11.5519 41.6133 11.2042C41.8155 11.0214 42.0839 10.9304 42.3554 10.9525C42.6261 10.9773 42.8751 11.1097 43.0463 11.3204L54.448 25.4397C55.4396 26.6615 55.8454 28.2571 55.5585 29.8039L54.4934 35.6141L54.493 35.6146C54.1967 37.2137 54.4736 38.8665 55.2743 40.2823L58.1794 45.4473V45.4469C58.3542 45.7603 58.6856 45.9535 59.0446 45.9508C59.2121 45.9481 59.3765 45.904 59.5224 45.8215C59.9799 45.5522 60.1353 44.965 59.8709 44.5043L59.871 44.5047Z" fill="#452178"/>
<path d="M15.1432 23.5421C15.1432 23.4583 15.1108 23.3871 15.0982 23.3097L19.9727 16.9635C20.3406 16.4766 20.5554 15.8907 20.5887 15.281C20.6221 14.6716 20.4726 14.0659 20.1596 13.5417C20.541 12.9554 20.7 12.2519 20.609 11.5584C20.518 10.8649 20.1821 10.2268 19.6624 9.75846C19.0643 9.22166 18.2713 8.95505 17.4701 9.02081C16.6685 9.08701 15.93 9.47971 15.4273 10.107L4.02596 24.2263C2.6831 25.8876 2.13364 28.0524 2.52135 30.1527L3.58641 35.963L3.58686 35.9634C3.79896 37.1177 3.60037 38.3101 3.02528 39.3333L0.113353 44.4983C-0.130733 44.9576 0.0318414 45.5277 0.481281 45.7894C0.627189 45.8718 0.791565 45.9164 0.959089 45.9186C1.30946 45.9159 1.63189 45.7263 1.80483 45.4214L4.70995 40.2565C5.51066 38.8406 5.78762 37.1883 5.49129 35.5887L4.42623 29.7785H4.42578C4.13891 28.2311 4.54466 26.6359 5.53632 25.4142L16.938 11.3204C17.1015 11.1132 17.3406 10.9795 17.6027 10.9488C17.8648 10.9178 18.1283 10.9925 18.3354 11.156C18.7668 11.4965 18.8407 12.122 18.5002 12.5539L12.2053 20.7915C12.0743 20.782 11.9428 20.782 11.8117 20.7915C11.0137 20.8496 10.2693 21.2153 9.73562 21.8115C9.20197 22.4078 8.92096 23.1878 8.95158 23.9876L9.33257 34.653C9.35013 35.1876 9.79822 35.6068 10.3332 35.5888C10.8682 35.5713 11.287 35.1232 11.2695 34.5882L10.9016 23.9165H10.9011C10.9218 23.3229 11.3861 22.8402 11.9783 22.7969C12.5705 22.7542 13.1001 23.1644 13.2059 23.7485L14.4651 35.3695C14.6628 37.2285 14.2602 39.1019 13.3158 40.715L8.25446 49.3016C8.00317 49.7555 8.15764 50.327 8.60302 50.5927C8.82369 50.7242 9.08758 50.762 9.33618 50.6976C9.58476 50.6332 9.79733 50.4725 9.92657 50.2504L14.9879 41.6638V41.6643C16.1399 39.6914 16.6331 37.4027 16.3952 35.1307L15.1432 23.5421Z" fill="#452178"/>
</svg>
