<svg width="60" height="60" viewBox="0 0 60 60" fill="none" xmlns="http://www.w3.org/2000/svg">
<path d="M59 48.0001H57V19C57 18.9925 56.996 18.9858 56.9955 18.9782C58.2054 18.0648 59 16.629 59 15V7C59 6.44777 58.5522 6 58 6H2.00001C1.44778 6 1.00001 6.44777 1.00001 7V15C1.00001 16.629 1.79465 18.0647 3.00446 18.9782C3.00402 18.9858 3 18.9925 3 19V48.0001H1C0.447771 48.0001 0 48.4478 0 49.0001V53.0001C0 53.5523 0.447771 54.0001 1 54.0001H59C59.5522 54.0001 60 53.5523 60 53.0001V49.0001C60 48.4478 59.5522 48.0001 59 48.0001H59ZM57 8.00005V10H3.00001V8.00005H57ZM3.00001 12H57V15C57 16.6546 55.6545 18 54 18C52.3455 18 51 16.6546 51 15C51 14.4478 50.5522 14 50 14C49.4478 14 49 14.4478 49 15C49 16.6546 47.6545 18 46 18C44.3455 18 43 16.6546 43 15C43 14.4478 42.5522 14 42 14C41.4478 14 41 14.4478 41 15C41 16.6546 39.6545 18 38 18C36.3455 18 35 16.6546 35 15C35 14.4478 34.5522 14 34 14C33.4478 14 33 14.4478 33 15C33 16.6546 31.6545 18 30 18C28.3455 18 27 16.6546 27 15C27 14.4478 26.5522 14 26 14C25.4478 14 25 14.4478 25 15C25 16.6546 23.6545 18 22 18C20.3455 18 19 16.6546 19 15C19 14.4478 18.5522 14 18 14C17.4478 14 17 14.4478 17 15C17 16.6546 15.6545 18 14 18C12.3455 18 11 16.6546 11 15C11 14.4478 10.5522 14 10 14C9.44779 14 9.00001 14.4478 9.00001 15C9.00001 16.6546 7.65453 18 6.00001 18C4.3455 18 3.00001 16.6546 3.00001 15V12ZM5.00001 19.8991C5.32323 19.9648 5.6576 20 6.00001 20C7.63396 20 9.0871 19.2125 10 17.9969C10.913 19.2126 12.3661 20 14 20C15.634 20 17.0871 19.2125 18 17.9969C18.913 19.2126 20.3661 20 22 20C23.634 20 25.0871 19.2125 26 17.9969C26.913 19.2126 28.3661 20 30 20C31.634 20 33.0871 19.2125 34 17.9969C34.913 19.2126 36.3661 20 38 20C39.634 20 41.0871 19.2125 42 17.9969C42.913 19.2126 44.3661 20 46 20C47.634 20 49.0871 19.2125 50 17.9969C50.913 19.2126 52.3661 20 54 20C54.3424 20 54.6768 19.9648 55 19.8991V47.9997H24V33.9997H25C25.5522 33.9997 26 33.5519 26 32.9997V28.9997C26 28.4475 25.5522 27.9997 25 27.9997H9.00001C8.44779 27.9997 8.00001 28.4475 8.00001 28.9997V32.9997C8.00001 33.5519 8.44779 33.9997 9.00001 33.9997H10V47.9997H5.00001V19.8991ZM12 47.9997V33.9997H16V47.9997H12ZM23 31.9997H10V29.9997H24V31.9997H23ZM18 33.9997H22V47.9997H18V33.9997ZM58 51.9997H2.00001V49.9997H58V51.9997Z" fill="#452178"/>
<path d="M32 43H52C52.5522 43 53 42.5522 53 42V38C53 37.4478 52.5522 37 52 37H51V26C51 25.4478 50.5522 25 50 25H34C33.4478 25 33 25.4478 33 26V37H32C31.4478 37 31 37.4478 31 38V42C31 42.5522 31.4478 43 32 43ZM49 37H44.4143L49 32.4143V37ZM49 29.5857L41.5857 37H37.4138L47.4138 27H49V29.5857ZM35 32.4143L40.4143 27H44.5862L35 36.5857V32.4143ZM37.5857 27L35 29.5857V27H37.5857ZM33 39H51V41H33V39Z" fill="#452178"/>
</svg>
