<svg width="60" height="60" viewBox="0 0 60 60" fill="none" xmlns="http://www.w3.org/2000/svg">
<path fill-rule="evenodd" clip-rule="evenodd" d="M13.6028 60C13.3755 60 13.1487 59.8908 12.9255 59.8474L12.9255 59.8474C12.8707 59.8368 12.816 59.8261 12.7653 59.8069C12.1541 59.5891 11.6241 59.1898 11.2461 58.6624C10.8682 58.1351 10.6602 57.5049 10.6502 56.8562C10.6329 56.134 10.6326 55.4115 10.6493 54.6886C10.6567 54.3763 10.5748 54.2164 10.2556 54.0882C8.39417 53.3408 7.38495 51.8266 7.38417 49.8163C7.38101 41.6528 7.38076 33.4894 7.38342 25.326C7.37191 25.1702 7.37813 25.0135 7.40194 24.8591C7.50781 24.4101 7.7879 24.1358 8.26581 24.1379C8.74424 24.1401 9.02429 24.4181 9.1214 24.8681C9.14791 25.0616 9.15416 25.2573 9.14005 25.4522C9.14021 26.6056 9.14096 27.7591 9.14171 28.9125C9.14437 32.9931 9.14702 37.0736 9.12328 41.1539C9.11966 41.7777 9.31029 41.8821 9.8708 41.87C10.8532 41.8488 11.8361 41.8519 12.8191 41.8549C13.4963 41.857 14.1735 41.8591 14.8506 41.8533C15.8001 41.8451 16.4351 42.2416 16.7991 43.1366C17.1144 43.9122 17.4484 44.6801 17.7824 45.448L17.7826 45.4486C18.0084 45.9678 18.2342 46.487 18.4542 47.0086C18.8851 48.0299 18.3976 48.7468 17.2762 48.7486L16.839 48.7494C14.4459 48.7534 12.0527 48.7574 9.65968 48.7413C9.26419 48.7386 9.09181 48.8202 9.13343 49.249C9.15036 49.4233 9.15102 49.5985 9.15168 49.7739C9.15284 50.0843 9.15401 50.3952 9.24531 50.7023C9.39849 51.231 9.71243 51.6988 10.1436 52.0409C10.5747 52.3831 11.1016 52.5825 11.6512 52.6116C11.7994 52.6192 11.9481 52.6184 12.0967 52.6175C12.1435 52.6173 12.1903 52.617 12.237 52.617C15.1807 52.617 18.1244 52.6158 21.0681 52.6146C29.9594 52.6108 38.8507 52.6071 47.7419 52.6389C49.5701 52.6455 51.1239 51.6376 50.8659 49.033C50.8333 48.7045 50.6531 48.7255 50.4807 48.7456C50.4394 48.7504 50.3985 48.7552 50.3602 48.7551C48.4147 48.749 46.4693 48.7494 44.5238 48.7497L42.9194 48.7499C42.8749 48.7499 42.8303 48.7506 42.7858 48.7512H42.7857C42.6738 48.753 42.5619 48.7547 42.4509 48.7455C41.6627 48.6799 41.1683 47.9801 41.4644 47.2481C42.071 45.7484 42.7086 44.2614 43.3772 42.787C43.6927 42.0932 44.3308 41.8544 45.0716 41.8561C45.6581 41.8575 46.2446 41.8564 46.8311 41.8552C47.9828 41.8529 49.1345 41.8507 50.2859 41.8676C50.7394 41.8742 50.8707 41.7581 50.8701 41.2904C50.8561 30.6858 50.8519 20.0812 50.8575 9.47654C50.857 7.79226 49.7498 6.68198 48.0696 6.68152C36.0198 6.67821 23.97 6.67826 11.9202 6.68167C10.2429 6.68217 9.14455 7.79542 9.14222 9.48579C9.1372 13.1378 9.13657 16.7899 9.14035 20.442C9.14915 20.6175 9.146 20.7935 9.1309 20.9686C9.11437 21.1904 9.01363 21.3974 8.84933 21.5473C8.68503 21.6972 8.46962 21.7785 8.24727 21.7747C8.02492 21.7708 7.81248 21.682 7.65349 21.5265C7.49451 21.371 7.40103 21.1606 7.39222 20.9384C7.37233 20.6337 7.37613 20.3275 7.37993 20.0213V20.0212C7.38147 19.8974 7.38301 19.7736 7.38298 19.6498C7.38288 19.1995 7.38226 18.7492 7.38164 18.2989C7.37977 16.933 7.37789 15.567 7.39028 14.2011C7.3936 13.835 7.31686 13.6697 6.91349 13.7038C6.73189 13.7192 6.53062 13.7046 6.33178 13.6903C5.96024 13.6635 5.5972 13.6372 5.38683 13.8078C5.14344 14.0051 5.19205 14.4196 5.24009 14.8291L5.24009 14.8292C5.25974 14.9967 5.2793 15.1634 5.27874 15.3141C5.27151 17.2609 5.27216 19.2077 5.2728 21.1545V21.1549C5.27314 22.1569 5.27347 23.159 5.27273 24.161C5.27176 25.4738 4.60892 26.1287 3.28706 26.1326C3.1661 26.133 3.0449 26.1303 2.92371 26.1276C2.67311 26.122 2.42255 26.1164 2.1743 26.1379C1.91099 26.1607 1.66787 26.1512 1.44501 26.1087C0.14263 25.8603 0 24.161 0 22.8351V15.2327C0 13.9186 0.152411 12.2625 1.43926 11.996C1.66304 11.9497 1.90712 11.9323 2.17119 11.9405C3.02605 11.9671 3.88181 11.9627 4.73763 11.9583C5.44265 11.9547 6.14772 11.9511 6.85236 11.9648C7.3041 11.9735 7.41389 11.8358 7.3924 11.408C7.3614 10.7904 7.37149 10.1704 7.38156 9.55114V9.55112L7.38552 9.30168C7.38705 8.27781 7.74803 7.28699 8.40548 6.50209C9.06293 5.7172 9.9751 5.18807 10.9828 5.00703C11.6338 4.88333 12.2907 4.89993 12.9475 4.91653C13.2464 4.92408 13.5452 4.93164 13.8434 4.92597L13.8851 4.92519C14.8197 4.90765 14.8266 4.90752 14.8179 3.93282C14.8103 3.08755 14.8414 2.26082 15.3154 1.50872C15.5093 1.20115 15.7413 0.95146 16.002 0.744049C16.8549 0.0653668 18.0169 0 19.107 0H42.2537C42.4412 0 42.6242 0.0497336 42.8 0.11517C44.2277 0.558809 45.0717 1.61863 45.1649 3.11444C45.195 3.54266 45.1977 3.97236 45.173 4.40092C45.1466 4.80103 45.2692 4.94521 45.6892 4.93135C46.5855 4.90177 47.484 4.90541 48.3807 4.93051C49.3637 4.96324 50.3068 5.32688 51.0574 5.9625C51.808 6.59813 52.322 7.46853 52.5161 8.43271C52.6618 9.15545 52.6408 9.88475 52.6197 10.6133C52.612 10.8787 52.6043 11.144 52.6047 11.4089C52.6054 11.8347 52.697 11.9734 53.148 11.9647C53.8507 11.9511 54.5537 11.9548 55.2567 11.9584C56.1145 11.9628 56.9723 11.9673 57.8291 11.9404C58.0894 11.9323 58.3302 11.9491 58.5511 11.9941C59.8447 12.2574 60 13.9218 60 15.242V22.8328C60 24.1602 59.857 25.8624 58.5529 26.1094C58.3309 26.1515 58.0888 26.1607 57.8266 26.1376C57.5894 26.1168 57.35 26.1223 57.1105 26.1277C56.9978 26.1303 56.885 26.1329 56.7726 26.1327C55.3696 26.1306 54.728 25.4967 54.7271 24.1032C54.7253 21.1155 54.7251 18.1279 54.7265 15.1402C54.7265 13.7459 54.7252 13.7459 53.4262 13.6977L53.3231 13.6939C52.7103 13.6708 52.6032 13.8623 52.6041 14.4331C52.6215 26.208 52.6255 37.983 52.6163 49.7581C52.6159 51.8233 51.6268 53.3303 49.7441 54.0879C49.4248 54.2164 49.3444 54.3772 49.351 54.689C49.367 55.4306 49.3674 56.1733 49.3467 56.9148C49.3175 57.9613 48.8332 58.7721 48.01 59.4005C47.7689 59.5845 47.4939 59.6931 47.2191 59.8016L47.2191 59.8016C46.9119 59.9229 46.5858 60 46.2555 60H39.835C39.688 60 39.5469 59.9496 39.4118 59.8917C37.8394 59.3849 37.0251 58.2797 37.0118 56.6228L37.01 56.42L37.0091 56.3257V56.3256V56.3255V56.3253V56.3252V56.3251C37.0042 55.8189 36.9993 55.3125 37.0165 54.8071C37.0275 54.4826 36.9303 54.3678 36.5905 54.3686C32.1972 54.3785 27.8038 54.3785 23.4104 54.3686C23.0712 54.3679 22.9754 54.4818 22.9837 54.8066C23.0015 55.509 23.0144 56.2138 22.9769 56.9148C22.9029 58.2979 22.189 59.2441 20.9202 59.7808C20.8003 59.8316 20.6798 59.8811 20.5593 59.9306L20.5586 59.9309C20.4477 59.9765 20.3289 60 20.209 60L13.6028 60ZM29.973 4.92187H42.2107C43.4261 4.92187 43.4261 4.92187 43.423 3.70004C43.4192 2.241 42.9427 1.75801 41.5036 1.75795C33.833 1.75764 26.1625 1.75764 18.492 1.75794C18.4511 1.75794 18.4101 1.75759 18.3691 1.75724H18.3691H18.3691H18.3691H18.3691H18.3691C18.2538 1.75627 18.1385 1.7553 18.0237 1.76201C17.2267 1.80861 16.675 2.32142 16.6019 3.11973C16.5833 3.32162 16.5851 3.52539 16.5869 3.72914V3.7292C16.5887 3.93594 16.5905 4.14267 16.5711 4.34741C16.5279 4.80393 16.6835 4.93483 17.1498 4.9328C20.4603 4.9184 23.7709 4.91974 27.0815 4.92108C28.0453 4.92147 29.0092 4.92187 29.973 4.92187ZM16.875 54.3751C16.5133 54.3751 16.1517 54.3758 15.79 54.3764H15.7891C14.8034 54.3782 13.8177 54.3799 12.8322 54.3687C12.5086 54.365 12.382 54.4496 12.3945 54.7913C12.4071 55.1332 12.4049 55.4757 12.4027 55.8182C12.4006 56.1399 12.3986 56.4617 12.4087 56.783C12.4355 57.6313 13.0079 58.2246 13.8571 58.2333C15.8295 58.2533 17.8021 58.2534 19.7748 58.2333C20.6236 58.2247 21.1961 57.6318 21.2237 56.783C21.2342 56.4599 21.2322 56.1363 21.2301 55.8128C21.2279 55.4721 21.2258 55.1315 21.2383 54.7913C21.2508 54.4496 21.1242 54.3648 20.8007 54.3687C19.8454 54.3801 18.8899 54.3783 17.9345 54.3765H17.9336C17.5808 54.3758 17.2279 54.3751 16.875 54.3751ZM43.1572 58.2418C43.4493 58.2418 43.7413 58.2427 44.0334 58.2436C44.6984 58.2456 45.3634 58.2476 46.0282 58.2392C47.0108 58.2268 47.5783 57.6524 47.596 56.6626C47.6013 56.3644 47.6 56.066 47.5986 55.7676V55.7671C47.5971 55.4406 47.5956 55.1141 47.6029 54.7878C47.6092 54.507 47.5535 54.3674 47.2231 54.3688C44.5279 54.3804 41.8326 54.3804 39.1373 54.3687C38.7984 54.3672 38.7595 54.522 38.7647 54.7945C38.7708 55.1112 38.7695 55.428 38.7682 55.7448C38.7669 56.053 38.7656 56.3612 38.7712 56.6694C38.7889 57.6554 39.359 58.2273 40.3448 58.2393C40.9965 58.2473 41.6484 58.2454 42.3003 58.2435C42.5859 58.2426 42.8716 58.2418 43.1572 58.2418ZM15.5983 46.9922C16.041 46.9922 16.3393 46.5394 16.1644 46.1326L16.164 46.1318L16.1634 46.1303C15.8246 45.3425 15.498 44.5831 15.176 43.8218C15.0881 43.6141 14.9274 43.6143 14.7492 43.6145H14.7459L13.8039 43.6155H13.8024C12.3815 43.6173 10.9606 43.6192 9.53981 43.6101C9.23775 43.6081 9.12919 43.6996 9.13517 44.0087C9.15175 44.8664 9.15668 45.725 9.13308 46.5823C9.1235 46.9302 9.25365 47.0041 9.57148 46.9984C10.2724 46.9859 10.9737 46.9882 11.6749 46.9904C11.9487 46.9913 12.2224 46.9922 12.4962 46.9922L15.5983 46.9922ZM45.1782 46.9913H45.186C46.9771 46.9904 48.7234 46.9894 50.4697 46.9982C50.7786 46.9997 50.8717 46.9052 50.8654 46.5998C50.8475 45.7423 50.8507 44.884 50.8639 44.0263C50.8683 43.739 50.8 43.6073 50.4777 43.6096C48.723 43.6222 46.9681 43.6181 45.2133 43.6124C45.1275 43.6003 45.0401 43.6182 44.9659 43.6628C44.8916 43.7075 44.8349 43.7763 44.8053 43.8578C44.4871 44.6108 44.1653 45.3623 43.829 46.1477L43.8289 46.1478C43.6577 46.5475 43.951 46.9919 44.3858 46.9917C44.651 46.9916 44.9151 46.9915 45.1782 46.9913ZM1.75781 19.0463V23.2019C1.75781 24.3594 1.7583 24.3594 2.88213 24.3848L2.94706 24.3863C3.40462 24.3968 3.53023 24.2729 3.52678 23.8098C3.51027 21.594 3.51228 19.378 3.5143 17.162C3.51496 16.4319 3.51562 15.7019 3.51562 14.9718C3.51562 13.7032 3.5156 13.7032 2.28346 13.7015L2.23833 13.7015C1.85832 13.7009 1.74415 13.8028 1.7491 14.1884C1.76431 15.375 1.76194 16.5618 1.75956 17.7486C1.75869 18.1812 1.75783 18.6137 1.75781 19.0463ZM56.4844 18.9819V23.1961C56.4844 24.361 56.4848 24.361 57.6095 24.3841L57.6678 24.3853C58.1133 24.3946 58.258 24.2908 58.2541 23.8156C58.2363 21.6047 58.2385 19.3936 58.2407 17.1826V17.1813C58.2414 16.4468 58.2422 15.7122 58.2422 14.9776C58.2422 13.7113 58.2419 13.7113 57.0336 13.6997L56.9708 13.699C56.529 13.6947 56.4721 13.8625 56.4766 14.241C56.4902 15.3977 56.488 16.5546 56.4859 17.7115C56.4851 18.135 56.4844 18.5585 56.4844 18.9819ZM30.0009 35.5077L13.2444 35.5075C11.6989 35.5073 10.8997 34.7104 10.8994 33.1651C10.8981 26.8766 10.8981 20.588 10.8993 14.2994C10.8996 12.7542 11.699 11.9537 13.2427 11.9536C24.4137 11.9526 35.5847 11.9526 46.7558 11.9536C48.2995 11.9537 49.1011 12.7549 49.1014 14.2979C49.1027 20.5864 49.1027 26.875 49.1014 33.1636C49.1011 34.7085 48.3007 35.5073 46.7575 35.5075C41.172 35.5082 35.5864 35.5082 30.0009 35.5077ZM30.0256 33.7499C31.2305 33.7499 32.4354 33.7496 33.6404 33.7493H33.644C37.9644 33.7483 42.2848 33.7472 46.6052 33.7597C47.143 33.7612 47.3584 33.644 47.3565 33.0507C47.3365 26.8407 47.3363 20.6307 47.3559 14.4206C47.3576 13.8401 47.163 13.7001 46.6129 13.7008C35.5403 13.7143 24.4676 13.7135 13.395 13.6984C12.7874 13.6975 12.6435 13.8939 12.6452 14.4713C12.6594 19.2368 12.6584 24.0023 12.6574 28.7678C12.6571 30.1733 12.6568 31.5788 12.6569 32.9843C12.6569 33.7487 12.6583 33.7497 13.4459 33.7498C18.9724 33.75 24.499 33.7501 30.0256 33.7499ZM21.3176 41.525C21.1637 41.1744 21.4206 40.7812 21.8035 40.7812H23.1651C25.8993 40.7856 28.6335 40.7846 31.3676 40.7781C31.9686 40.7767 32.3383 40.4375 32.3488 39.9244C32.3594 39.4097 31.9914 39.0581 31.4061 39.0249C31.3636 39.0225 31.3209 39.0229 31.2783 39.0232H31.2781L31.2304 39.0235C27.7931 39.0179 24.3558 39.0187 20.9185 39.0259C19.4775 39.0289 18.7785 40.127 19.3625 41.4604C19.7304 42.3004 20.1016 43.1389 20.4728 43.9775L20.4729 43.9776L20.473 43.9778L20.473 43.9779L20.4731 43.9781C21.0016 45.1718 21.53 46.3655 22.0488 47.5634C22.3999 48.3741 22.9655 48.7604 23.8626 48.7569C27.9444 48.7391 32.0261 48.7394 36.1078 48.7579C37.0293 48.7621 37.6077 48.3737 37.9635 47.5369C38.432 46.4351 38.9175 45.3405 39.4029 44.2459C39.5973 43.8076 39.7917 43.3693 39.985 42.9305C40.0658 42.7472 40.1491 42.5649 40.2325 42.3826C40.4088 41.9971 40.5851 41.6115 40.7367 41.2166C41.1172 40.2258 40.5418 39.1291 39.518 39.0634C38.1763 38.9774 36.8243 39.012 35.4783 39.0497C34.9906 39.0634 34.7201 39.4346 34.7094 39.9275C34.7098 40.0407 34.7329 40.1526 34.7771 40.2567C34.8214 40.3608 34.886 40.455 34.9671 40.5338C35.0483 40.6127 35.1443 40.6745 35.2497 40.7157C35.3551 40.7569 35.4676 40.7766 35.5807 40.7738C36.0612 40.7893 36.5424 40.7864 37.0235 40.7835C37.226 40.7822 37.4286 40.781 37.6311 40.7811C37.9246 40.7813 38.2181 40.7813 38.5364 40.7812H38.5377H38.539H38.5405H38.5419C38.765 40.7812 38.9144 41.0106 38.8241 41.2147C38.6744 41.5531 38.5258 41.8888 38.3781 42.2223L38.3742 42.2311C37.691 43.7742 37.029 45.2694 36.3753 46.7683C36.2765 46.9949 36.1186 46.9936 35.9435 46.9921L35.9001 46.9918C31.9746 46.9864 28.0491 46.9887 24.1236 46.9987C24.0012 47.0141 23.8774 46.9856 23.774 46.9183C23.6707 46.8511 23.5945 46.7494 23.5589 46.6313C23.1925 45.7737 22.8149 44.9209 22.4373 44.0681L22.4372 44.0679L22.4369 44.0672C22.2857 43.7258 22.1345 43.3843 21.984 43.0425C21.766 42.5474 21.5487 42.052 21.3205 41.5317L21.3179 41.5258L21.3176 41.525ZM29.9434 10.1953C26.9751 10.1953 24.0067 10.1951 21.0383 10.1946C20.863 10.2073 20.6869 10.2009 20.5129 10.1757C20.0629 10.0748 19.7891 9.79688 19.7891 9.31639C19.789 8.83626 20.0613 8.55716 20.5121 8.45678C20.6861 8.43172 20.8622 8.42544 21.0376 8.43805C27.0133 8.43734 32.9891 8.43734 38.9649 8.43805C39.1402 8.42551 39.3164 8.43175 39.4904 8.45667C39.9414 8.55651 40.2142 8.83598 40.2145 9.31557C40.2149 9.79543 39.9413 10.0745 39.4911 10.1755C39.3172 10.2008 39.141 10.2072 38.9657 10.1946C35.9583 10.1955 32.9508 10.1957 29.9434 10.1953ZM28.8697 44.7661C29.2478 44.7658 29.6259 44.7655 30.004 44.7655C30.3819 44.7655 30.7598 44.7658 31.1377 44.7661H31.1402C32.0481 44.7668 32.956 44.7675 33.8638 44.7641C34.5506 44.7615 34.9368 44.4372 34.9346 43.8844C34.9325 43.3338 34.5459 43.0105 33.8563 43.0094C31.2831 43.0052 28.7099 43.0053 26.1367 43.0096C25.451 43.0107 25.0642 43.3398 25.0664 43.8919C25.0686 44.4438 25.4535 44.7618 26.1442 44.7642C27.0518 44.7674 27.9594 44.7667 28.8671 44.7661H28.8697ZM15.7138 8.44218C15.8884 8.44291 16.0588 8.4959 16.203 8.59433C16.3472 8.69277 16.4587 8.83212 16.523 8.99446C16.5872 9.15679 16.6015 9.33466 16.5638 9.50514C16.5261 9.67563 16.4382 9.83092 16.3115 9.95101C16.1847 10.0711 16.0249 10.1505 15.8526 10.1789C15.6804 10.2074 15.5035 10.1836 15.3449 10.1107C15.1863 10.0377 15.0531 9.91893 14.9626 9.76962C14.8721 9.62032 14.8283 9.44732 14.837 9.27294C14.8463 9.04758 14.9431 8.83473 15.1068 8.6796C15.2705 8.52447 15.4883 8.43929 15.7138 8.44218ZM43.8018 10.0425C43.9468 10.1396 44.1175 10.1911 44.2921 10.1904C44.5178 10.1911 44.7349 10.1039 44.8972 9.94716C45.0596 9.79041 45.1545 9.57652 45.1616 9.35095C45.1686 9.17656 45.1231 9.00408 45.0312 8.85574C44.9393 8.70739 44.805 8.58996 44.6458 8.51857C44.4865 8.44719 44.3095 8.42511 44.1376 8.45518C43.9657 8.48526 43.8067 8.56611 43.6811 8.68732C43.5555 8.80854 43.4691 8.96457 43.433 9.13532C43.3969 9.30607 43.4127 9.48372 43.4784 9.6454C43.5441 9.80708 43.6567 9.94539 43.8018 10.0425Z" fill="url(#paint0_linear_1134_2771)"/>
<defs>
<linearGradient id="paint0_linear_1134_2771" x1="30" y1="60" x2="30" y2="0.899998" gradientUnits="userSpaceOnUse">
<stop offset="0.0109495" stop-color="#452178"/>
<stop offset="1" stop-color="#452178"/>
</linearGradient>
</defs>
</svg>
