<svg width="61" height="60" viewBox="0 0 61 60" fill="none" xmlns="http://www.w3.org/2000/svg">
<path fill-rule="evenodd" clip-rule="evenodd" d="M1.34797 28.0401C0.281375 28.038 7.17764e-06 29.3149 7.17764e-06 30.3815V37.8331C7.17764e-06 38.8799 0.35703 40.0847 1.40376 40.0695C2.44458 40.0544 3.48563 40.0558 4.52668 40.0572C5.47814 40.0585 6.4296 40.0598 7.3809 40.0484C7.84601 40.0429 8.02327 40.137 8.01696 40.6491C7.98882 42.9342 7.99351 45.22 8.01432 47.5053C8.01842 47.9555 7.90693 48.1078 7.43383 48.1018C6.44637 48.0892 5.45872 48.0906 4.47108 48.0919C3.44668 48.0932 2.42228 48.0946 1.3981 48.0805C0.348217 48.066 0 49.2783 0 50.3283V58.0253C0 58.9292 0.241535 60.0009 1.14549 60C17.0317 59.9919 32.918 59.9878 48.8042 59.9878C49.8833 59.9878 50.1004 59.775 50.1012 58.697C50.1017 58.1426 50.1025 57.5882 50.1033 57.0337C50.1064 54.9469 50.1095 52.8601 50.0911 50.7736C50.0866 50.2615 50.1896 50.0713 50.7536 50.0819C52.3022 50.1111 53.8514 50.1053 55.4006 50.0996C55.8471 50.0979 56.2936 50.0963 56.74 50.0954C57.7811 50.0935 58.1095 49.7622 58.11 48.7235C58.1112 45.6323 58.1112 42.5412 58.1101 39.45C58.1097 38.3714 57.793 38.0562 56.7075 38.0552C55.968 38.0545 55.2284 38.0549 54.4888 38.0553C53.2915 38.056 52.0942 38.0566 50.8969 38.0528C50.4447 38.0513 50.2488 38.0805 50.1647 37.9971C50.0821 37.9151 50.1074 37.7243 50.1033 37.2887C50.0988 36.8157 50.0999 36.3426 50.101 35.8696C50.1015 35.6579 50.102 35.4462 50.1019 35.2344C50.1019 34.6621 50.1023 34.0898 50.1027 33.5175C50.1037 32.1138 50.1046 30.7101 50.0994 29.3064C50.0961 28.4038 49.744 28.0575 48.8595 28.0504C48.7969 28.0499 48.7344 28.0493 48.6719 28.0488C48.3235 28.0455 47.975 28.0423 47.627 28.0527C47.3807 28.0601 47.2767 27.9865 47.2974 27.7197C47.3521 27.0156 47.0531 26.4384 46.6383 25.8909C46.0289 25.0863 45.4239 24.2782 44.819 23.4701C44.0762 22.4778 43.3334 21.4855 42.5821 20.4997C42.3609 20.2095 42.3707 20.0625 42.6702 19.8593C42.9215 19.6888 43.1625 19.5034 43.4036 19.318C43.6279 19.1455 43.8522 18.9731 44.0847 18.8126C45.3405 17.9458 45.9023 16.7653 45.7772 15.243C45.6779 14.035 45.6176 13.4972 45.8172 13.0852C46.0244 12.6574 46.5118 12.3653 47.5265 11.5997C48.3556 10.9742 48.3596 10.9795 48.9769 11.7972C49.6811 12.7301 50.0629 12.7816 51.0122 12.0695C51.7421 11.5221 52.4675 10.9681 53.1929 10.4142C54.8616 9.13993 56.5303 7.86567 58.2537 6.67031C60.289 5.25861 60.8172 3.29436 58.9048 1.12186C57.8392 -0.0886514 56.1758 -0.373766 54.8425 0.53338C54.5392 0.739765 54.2476 0.963432 53.956 1.18709C53.8284 1.28499 53.7007 1.38289 53.5721 1.47933C51.2866 3.19058 49.0027 4.90398 46.7204 6.61952C45.9509 7.19793 45.8898 7.66651 46.467 8.44781C46.5067 8.50149 46.5456 8.55584 46.5846 8.6102C46.6941 8.76289 46.8037 8.9157 46.9289 9.05421C47.1388 9.28635 47.1003 9.43468 46.8504 9.6126C46.2452 10.0435 45.6511 10.4908 45.0649 10.9475C44.6144 11.2812 44.2529 11.7206 44.0124 12.2271C43.772 12.7336 43.6599 13.2915 43.6861 13.8516C43.6957 14.2944 43.7264 14.7367 43.7571 15.179C43.7671 15.3223 43.7771 15.4656 43.7863 15.609C43.8114 15.8834 43.763 16.1595 43.646 16.409C43.529 16.6585 43.3477 16.8723 43.1207 17.0285C42.9634 17.1462 42.8049 17.2622 42.6463 17.3783C42.268 17.6551 41.8898 17.9319 41.5295 18.2305C41.2234 18.4842 41.0664 18.4902 40.811 18.1421C39.5637 16.4419 38.2919 14.7596 37.0201 13.0773C36.9356 12.9656 36.8511 12.8538 36.7667 12.742C35.4538 11.0052 33.59 11.1607 32.5559 13.0851C29.9577 17.9 27.3709 22.721 24.7954 27.548C24.5927 27.9279 24.3768 28.0612 23.9448 28.0604C20.2081 28.0532 16.4715 28.0518 12.7349 28.0504C8.93922 28.049 5.14359 28.0477 1.34797 28.0401ZM35.3592 24.4244C35.5124 24.5476 35.6993 24.6217 35.8954 24.6371C36.299 24.6406 36.5538 24.4588 36.8056 24.2699C37.1238 24.0313 37.4426 23.7934 37.7614 23.5556C38.6019 22.9285 39.4424 22.3014 40.2717 21.6599C40.5899 21.4138 40.7533 21.358 41.0333 21.7424C41.9434 22.992 42.8732 24.2273 43.803 25.4626C44.2249 26.0231 44.6468 26.5837 45.0669 27.1456C45.4418 27.6471 45.394 27.777 44.7805 27.9076C38.3644 29.2719 31.948 30.6355 25.5315 31.9983C25.5106 32.0027 25.4895 32.0076 25.4683 32.0124C25.2779 32.0558 25.0808 32.1007 24.944 31.8965C24.8073 31.6927 24.9112 31.5219 25.0119 31.3566C25.0333 31.3214 25.0546 31.2864 25.0734 31.2515C28.053 25.714 31.0284 20.1744 33.9995 14.6324C34.3749 13.9321 34.5383 13.5865 34.7253 13.5732C34.9139 13.5599 35.1265 13.8849 35.6051 14.5255C35.7921 14.7759 35.9791 15.0264 36.166 15.2769C37.1714 16.6242 38.1768 17.9716 39.203 19.3029C39.4777 19.6593 39.4315 19.8172 39.0809 20.0702C38.2442 20.6739 37.4208 21.2959 36.5973 21.9179C36.2198 22.203 35.8423 22.4882 35.4636 22.7715C35.0617 23.0722 34.8762 23.4586 35.036 23.9465C35.0933 24.1346 35.2059 24.3012 35.3592 24.4244ZM50.7215 48.0898C50.1682 48.0903 49.6149 48.0909 49.0617 48.0909C48.5003 48.0909 47.939 48.0901 47.3776 48.0894C45.8064 48.0873 44.2352 48.0853 42.6642 48.0997C42.2192 48.1038 42.0529 48.0018 42.0582 47.5178C42.0836 45.2095 42.0773 42.9007 42.0623 40.5922C42.0597 40.1955 42.1609 40.0487 42.5847 40.0501C46.928 40.0617 51.2712 40.0624 55.6145 40.0521C55.9865 40.0512 56.1216 40.1442 56.1186 40.5422C56.0987 42.89 56.099 45.2377 56.1195 47.5852C56.1232 48.0174 55.9669 48.1011 55.5766 48.0983C53.9583 48.0867 52.3399 48.0883 50.7215 48.0898ZM15.3749 40.0599C15.935 40.0592 16.4952 40.0586 17.0553 40.0586C17.6154 40.0586 18.1755 40.0594 18.7356 40.0601C20.3251 40.0624 21.9145 40.0646 23.5037 40.049C23.9404 40.0447 24.0673 40.1651 24.0632 40.6069C24.0437 42.9128 24.0433 45.2186 24.0619 47.5243C24.0653 47.9426 23.9798 48.1027 23.5199 48.1009C19.2014 48.0856 14.8828 48.0852 10.5643 48.0996C10.1312 48.101 9.99489 47.9841 9.99893 47.5404C10.0199 45.2347 10.024 42.9286 9.99651 40.6231C9.9906 40.1279 10.1735 40.047 10.6068 40.0505C12.1961 40.0636 13.7855 40.0617 15.3749 40.0599ZM34.7173 48.0896C34.1613 48.0902 33.6052 48.0909 33.0492 48.0909C32.4876 48.0909 31.926 48.0901 31.3645 48.0893C29.7761 48.0869 28.1877 48.0846 26.5995 48.1008C26.1596 48.1053 26.04 47.9818 26.0442 47.5421C26.063 45.2358 26.0636 42.9296 26.0462 40.6234C26.0431 40.212 26.1149 40.0455 26.5826 40.0476C30.902 40.0625 35.2213 40.0635 39.5407 40.0507C39.9469 40.0495 40.0751 40.166 40.0721 40.5772C40.0549 42.9029 40.0511 45.2289 40.0746 47.5545C40.0793 48.0161 39.9154 48.1026 39.4989 48.0992C37.9051 48.0859 36.3112 48.0878 34.7173 48.0896ZM42.7558 58.1036C42.1978 58.1044 41.6398 58.1051 41.0819 58.1051C40.5237 58.1051 39.9655 58.1044 39.4073 58.1037C37.7945 58.1017 36.1818 58.0996 34.5692 58.1144C34.1563 58.1182 34.0436 58.0004 34.0469 57.5901C34.0662 55.2627 34.0662 52.9353 34.0469 50.6081C34.0434 50.1889 34.1788 50.0877 34.5789 50.0888C38.9012 50.1034 43.2235 50.1029 47.5457 50.0872C47.9857 50.0856 48.1098 50.2092 48.1059 50.648C48.0834 52.956 48.0837 55.2637 48.1069 57.5713C48.1115 58.0283 47.9589 58.1186 47.5359 58.1146C45.9426 58.0994 44.3492 58.1015 42.7558 58.1036ZM10.7514 58.1027C10.1811 58.1039 9.61077 58.1051 9.04048 58.1051C8.47315 58.1051 7.9058 58.1042 7.33845 58.1032C5.77429 58.1005 4.21013 58.0977 2.6462 58.1157C2.16226 58.1213 1.97538 58.0442 1.98448 57.4913C2.0218 55.2236 2.0105 52.9548 1.99099 50.6866C1.98724 50.2503 2.06909 50.0826 2.55781 50.0849C6.85988 50.1045 11.1619 50.1047 15.4638 50.0855C15.9464 50.0833 16.0453 50.2462 16.0417 50.6876C16.023 52.9558 16.0197 55.2244 16.0438 57.4925C16.0489 57.9694 15.9368 58.1243 15.4347 58.1175C13.8738 58.0962 12.3126 58.0995 10.7514 58.1027ZM26.6892 58.1042C26.1437 58.1046 25.5983 58.1051 25.0528 58.1051C24.4886 58.1051 23.9244 58.1042 23.3602 58.1032C21.7941 58.1007 20.2281 58.0981 18.6622 58.1156C18.1964 58.1209 18.0224 58.0293 18.0287 57.5176C18.0573 55.2314 18.0505 52.9445 18.0326 50.6581C18.0294 50.2416 18.1141 50.0841 18.5747 50.086C22.8938 50.1006 27.2129 50.1014 31.5319 50.0887C31.9268 50.0876 32.0687 50.1757 32.065 50.6002C32.0457 52.9455 32.0456 55.2907 32.0645 57.6357C32.0678 58.0389 31.9251 58.1147 31.5608 58.1123C29.937 58.1014 28.3131 58.1028 26.6892 58.1042ZM47.5516 38.0537C45.3824 38.0543 43.2131 38.0546 41.0439 38.0546C40.4805 38.0546 39.917 38.0537 39.3536 38.0528C37.7673 38.0503 36.181 38.0478 34.5949 38.0652C34.1471 38.0701 34.0393 37.9348 34.0461 37.5036C34.0713 35.921 34.0641 34.3378 34.0499 32.7549C34.0467 32.3968 34.1039 32.2115 34.5209 32.1255C35.6848 31.8857 36.8462 31.633 38.0075 31.3803C40.0501 30.9359 42.0926 30.4915 44.1479 30.1171C44.9611 29.9689 45.8066 29.9984 46.6523 30.0279C47.0468 30.0416 47.4414 30.0553 47.8328 30.0511C48.0954 30.0482 48.0954 30.2224 48.0954 30.4047V30.4072C48.0954 31.027 48.0949 31.6467 48.0945 32.2664C48.0932 34.07 48.0918 35.8736 48.1016 37.6771C48.1038 38.0724 47.8844 38.0645 47.6532 38.0561C47.6194 38.0549 47.5853 38.0537 47.5516 38.0537ZM3.5277 30.0499H9.04037C9.60405 30.0499 10.1677 30.0509 10.7314 30.0519C12.3181 30.0546 13.9048 30.0573 15.4912 30.0385C15.9425 30.0331 16.0455 30.1706 16.042 30.598C16.0203 32.9048 16.0208 35.2115 16.0433 37.518C16.0478 37.9735 15.8936 38.0648 15.4715 38.0634C11.1708 38.0468 6.87016 38.0473 2.56957 38.0651C2.10486 38.0671 1.97238 37.9388 1.98939 37.4787C2.02476 36.5222 2.02059 35.5627 1.99067 34.6058C1.97745 34.1833 2.07077 33.9985 2.53225 34.0416C2.98109 34.0691 3.43112 34.0715 3.88021 34.0486C4.56136 34.0353 5.01623 33.6245 5.00892 33.0424C5.00162 32.4606 4.54821 32.0643 3.85927 32.0519L3.85545 32.0518C3.36816 32.0431 2.87993 32.0343 2.39341 32.0553C2.08512 32.0686 2.00347 31.96 1.99228 31.6553C1.96271 30.8504 1.94567 30.449 2.13799 30.2489C2.32934 30.0498 2.72795 30.0499 3.5277 30.0499ZM22.0076 30.0518C22.2962 30.0516 22.5864 30.0513 22.8785 30.0512C23.1281 30.0511 23.2942 30.3001 23.1885 30.5261C23.0395 30.8447 22.9056 31.1309 22.8789 31.4608C22.7444 33.1215 24.1227 34.3374 25.7802 33.9908C27.6716 33.5952 29.562 33.1942 31.4472 32.7707C31.9084 32.667 32.0856 32.7049 32.0695 33.2551C32.0275 34.7004 32.0447 36.1479 32.0629 37.5942C32.0673 37.9473 31.9764 38.0633 31.6078 38.0623C27.2487 38.0503 22.8896 38.0503 18.5304 38.062C18.1493 38.063 18.0311 37.9524 18.0336 37.5683C18.0437 36.0385 18.0433 34.5087 18.0429 32.9788C18.0426 32.1629 18.0424 31.347 18.0438 30.5311C18.0439 30.4987 18.042 30.465 18.0401 30.4311C18.0294 30.2403 18.0185 30.0452 18.3536 30.0471C19.5619 30.0539 20.7703 30.0529 22.0076 30.0518ZM57.5678 2.68215C57.8291 2.99424 58.092 3.30833 58.1091 3.7393C58.0999 3.90971 58.052 4.07581 57.9691 4.22496C57.8862 4.37412 57.7703 4.50242 57.6304 4.60013C55.2652 6.36759 52.9052 8.14191 50.5504 9.9231C50.2946 10.1166 50.17 10.0667 49.9983 9.82423C49.5804 9.23402 49.1418 8.65789 48.6964 8.088C48.5334 7.87949 48.5164 7.76458 48.7571 7.58561C49.9601 6.69077 51.1594 5.79084 52.3587 4.89092C53.5368 4.00698 54.7148 3.12304 55.8963 2.24392C56.447 1.83417 56.9632 1.91351 57.3828 2.45535C57.442 2.53191 57.5049 2.60697 57.5678 2.68215ZM9.40527 34.0517C9.60328 34.0505 9.80129 34.0494 9.99926 34.0494C10.1928 34.0495 10.3864 34.0504 10.58 34.0513C11.0297 34.0534 11.4795 34.0555 11.929 34.0469C12.5744 34.0346 13.0095 33.635 13.0206 33.0714C13.0316 32.5114 12.5927 32.0633 11.9653 32.0558C10.6592 32.0385 9.35318 32.039 8.04742 32.0574C7.43303 32.066 7.03659 32.4754 7.02759 33.0357C7.01807 33.6276 7.41846 34.0297 8.06956 34.0458C8.51458 34.0568 8.95992 34.0542 9.40527 34.0517Z" fill="url(#paint0_linear_1134_2822)"/>
<defs>
<linearGradient id="paint0_linear_1134_2822" x1="30.0462" y1="60" x2="30.0462" y2="0.899998" gradientUnits="userSpaceOnUse">
<stop offset="0.0109495" stop-color="#452178"/>
<stop offset="1" stop-color="#452178"/>
</linearGradient>
</defs>
</svg>
